<svg width="268" height="155" viewBox="0 0 268 155" fill="none" xmlns="http://www.w3.org/2000/svg">
<rect x="0.5" y="0.5" width="267" height="154" fill="white" stroke="#E0E0E0"/>
<path d="M17.14 91H17.88V97.36H21.8V98H17.14V91ZM24.9505 98.05C24.4439 98.05 23.9872 97.9367 23.5805 97.71C23.1739 97.4767 22.8539 97.1567 22.6205 96.75C22.3872 96.3433 22.2705 95.8833 22.2705 95.37C22.2705 94.8567 22.3872 94.3967 22.6205 93.99C22.8539 93.5833 23.1739 93.2667 23.5805 93.04C23.9872 92.8133 24.4439 92.7 24.9505 92.7C25.4572 92.7 25.9139 92.8133 26.3205 93.04C26.7272 93.2667 27.0439 93.5833 27.2705 93.99C27.5039 94.3967 27.6205 94.8567 27.6205 95.37C27.6205 95.8833 27.5039 96.3433 27.2705 96.75C27.0439 97.1567 26.7272 97.4767 26.3205 97.71C25.9139 97.9367 25.4572 98.05 24.9505 98.05ZM24.9505 97.42C25.3239 97.42 25.6572 97.3367 25.9505 97.17C26.2505 96.9967 26.4839 96.7533 26.6505 96.44C26.8172 96.1267 26.9005 95.77 26.9005 95.37C26.9005 94.97 26.8172 94.6133 26.6505 94.3C26.4839 93.9867 26.2505 93.7467 25.9505 93.58C25.6572 93.4067 25.3239 93.32 24.9505 93.32C24.5772 93.32 24.2405 93.4067 23.9405 93.58C23.6472 93.7467 23.4139 93.9867 23.2405 94.3C23.0739 94.6133 22.9905 94.97 22.9905 95.37C22.9905 95.77 23.0739 96.1267 23.2405 96.44C23.4139 96.7533 23.6472 96.9967 23.9405 97.17C24.2405 97.3367 24.5772 97.42 24.9505 97.42ZM29.7501 93.77C29.9167 93.4167 30.1634 93.15 30.4901 92.97C30.8234 92.79 31.2334 92.7 31.7201 92.7V93.39L31.5501 93.38C30.9967 93.38 30.5634 93.55 30.2501 93.89C29.9367 94.23 29.7801 94.7067 29.7801 95.32V98H29.0701V92.74H29.7501V93.77ZM37.5368 95.59H33.1368C33.1768 96.1367 33.3868 96.58 33.7668 96.92C34.1468 97.2533 34.6268 97.42 35.2068 97.42C35.5335 97.42 35.8335 97.3633 36.1068 97.25C36.3801 97.13 36.6168 96.9567 36.8168 96.73L37.2168 97.19C36.9835 97.47 36.6901 97.6833 36.3368 97.83C35.9901 97.9767 35.6068 98.05 35.1868 98.05C34.6468 98.05 34.1668 97.9367 33.7468 97.71C33.3335 97.4767 33.0101 97.1567 32.7768 96.75C32.5435 96.3433 32.4268 95.8833 32.4268 95.37C32.4268 94.8567 32.5368 94.3967 32.7568 93.99C32.9835 93.5833 33.2901 93.2667 33.6768 93.04C34.0701 92.8133 34.5101 92.7 34.9968 92.7C35.4835 92.7 35.9201 92.8133 36.3068 93.04C36.6935 93.2667 36.9968 93.5833 37.2168 93.99C37.4368 94.39 37.5468 94.85 37.5468 95.37L37.5368 95.59ZM34.9968 93.31C34.4901 93.31 34.0635 93.4733 33.7168 93.8C33.3768 94.12 33.1835 94.54 33.1368 95.06H36.8668C36.8201 94.54 36.6235 94.12 36.2768 93.8C35.9368 93.4733 35.5101 93.31 34.9968 93.31ZM45.552 92.7C46.212 92.7 46.7286 92.89 47.102 93.27C47.482 93.65 47.672 94.21 47.672 94.95V98H46.962V95.02C46.962 94.4733 46.8286 94.0567 46.562 93.77C46.302 93.4833 45.932 93.34 45.452 93.34C44.9053 93.34 44.4753 93.51 44.162 93.85C43.8486 94.1833 43.692 94.6467 43.692 95.24V98H42.982V95.02C42.982 94.4733 42.8486 94.0567 42.582 93.77C42.322 93.4833 41.9486 93.34 41.462 93.34C40.922 93.34 40.492 93.51 40.172 93.85C39.8586 94.1833 39.702 94.6467 39.702 95.24V98H38.992V92.74H39.672V93.7C39.8586 93.38 40.1186 93.1333 40.452 92.96C40.7853 92.7867 41.1686 92.7 41.602 92.7C42.042 92.7 42.422 92.7933 42.742 92.98C43.0686 93.1667 43.312 93.4433 43.472 93.81C43.6653 93.4633 43.942 93.1933 44.302 93C44.6686 92.8 45.0853 92.7 45.552 92.7ZM52.3646 91H53.1046V98H52.3646V91ZM57.9422 92.7C58.4355 92.7 58.8822 92.8133 59.2822 93.04C59.6822 93.26 59.9955 93.5733 60.2222 93.98C60.4489 94.3867 60.5622 94.85 60.5622 95.37C60.5622 95.8967 60.4489 96.3633 60.2222 96.77C59.9955 97.1767 59.6822 97.4933 59.2822 97.72C58.8889 97.94 58.4422 98.05 57.9422 98.05C57.5155 98.05 57.1289 97.9633 56.7822 97.79C56.4422 97.61 56.1622 97.35 55.9422 97.01V99.94H55.2322V92.74H55.9122V93.78C56.1255 93.4333 56.4055 93.1667 56.7522 92.98C57.1055 92.7933 57.5022 92.7 57.9422 92.7ZM57.8922 97.42C58.2589 97.42 58.5922 97.3367 58.8922 97.17C59.1922 96.9967 59.4255 96.7533 59.5922 96.44C59.7655 96.1267 59.8522 95.77 59.8522 95.37C59.8522 94.97 59.7655 94.6167 59.5922 94.31C59.4255 93.9967 59.1922 93.7533 58.8922 93.58C58.5922 93.4067 58.2589 93.32 57.8922 93.32C57.5189 93.32 57.1822 93.4067 56.8822 93.58C56.5889 93.7533 56.3555 93.9967 56.1822 94.31C56.0155 94.6167 55.9322 94.97 55.9322 95.37C55.9322 95.77 56.0155 96.1267 56.1822 96.44C56.3555 96.7533 56.5889 96.9967 56.8822 97.17C57.1822 97.3367 57.5189 97.42 57.8922 97.42ZM63.4195 98.05C62.9929 98.05 62.5829 97.99 62.1895 97.87C61.8029 97.7433 61.4995 97.5867 61.2795 97.4L61.5995 96.84C61.8195 97.0133 62.0962 97.1567 62.4295 97.27C62.7629 97.3767 63.1095 97.43 63.4695 97.43C63.9495 97.43 64.3029 97.3567 64.5295 97.21C64.7629 97.0567 64.8795 96.8433 64.8795 96.57C64.8795 96.3767 64.8162 96.2267 64.6895 96.12C64.5629 96.0067 64.4029 95.9233 64.2095 95.87C64.0162 95.81 63.7595 95.7533 63.4395 95.7C63.0129 95.62 62.6695 95.54 62.4095 95.46C62.1495 95.3733 61.9262 95.23 61.7395 95.03C61.5595 94.83 61.4695 94.5533 61.4695 94.2C61.4695 93.76 61.6529 93.4 62.0195 93.12C62.3862 92.84 62.8962 92.7 63.5495 92.7C63.8895 92.7 64.2295 92.7467 64.5695 92.84C64.9095 92.9267 65.1895 93.0433 65.4095 93.19L65.0995 93.76C64.6662 93.46 64.1495 93.31 63.5495 93.31C63.0962 93.31 62.7529 93.39 62.5195 93.55C62.2929 93.71 62.1795 93.92 62.1795 94.18C62.1795 94.38 62.2429 94.54 62.3695 94.66C62.5029 94.78 62.6662 94.87 62.8595 94.93C63.0529 94.9833 63.3195 95.04 63.6595 95.1C64.0795 95.18 64.4162 95.26 64.6695 95.34C64.9229 95.42 65.1395 95.5567 65.3195 95.75C65.4995 95.9433 65.5895 96.21 65.5895 96.55C65.5895 97.01 65.3962 97.3767 65.0095 97.65C64.6295 97.9167 64.0995 98.05 63.4195 98.05ZM71.6421 92.74V98H70.9621V97.04C70.7754 97.36 70.5188 97.61 70.1921 97.79C69.8654 97.9633 69.4921 98.05 69.0721 98.05C68.3854 98.05 67.8421 97.86 67.4421 97.48C67.0488 97.0933 66.8521 96.53 66.8521 95.79V92.74H67.5621V95.72C67.5621 96.2733 67.6988 96.6933 67.9721 96.98C68.2454 97.2667 68.6354 97.41 69.1421 97.41C69.6954 97.41 70.1321 97.2433 70.4521 96.91C70.7721 96.57 70.9321 96.1 70.9321 95.5V92.74H71.6421ZM80.1906 92.7C80.8506 92.7 81.3673 92.89 81.7406 93.27C82.1206 93.65 82.3106 94.21 82.3106 94.95V98H81.6006V95.02C81.6006 94.4733 81.4673 94.0567 81.2006 93.77C80.9406 93.4833 80.5706 93.34 80.0906 93.34C79.544 93.34 79.114 93.51 78.8006 93.85C78.4873 94.1833 78.3306 94.6467 78.3306 95.24V98H77.6206V95.02C77.6206 94.4733 77.4873 94.0567 77.2206 93.77C76.9606 93.4833 76.5873 93.34 76.1006 93.34C75.5606 93.34 75.1306 93.51 74.8106 93.85C74.4973 94.1833 74.3406 94.6467 74.3406 95.24V98H73.6306V92.74H74.3106V93.7C74.4973 93.38 74.7573 93.1333 75.0906 92.96C75.424 92.7867 75.8073 92.7 76.2406 92.7C76.6806 92.7 77.0606 92.7933 77.3806 92.98C77.7073 93.1667 77.9506 93.4433 78.1106 93.81C78.304 93.4633 78.5806 93.1933 78.9406 93C79.3073 92.8 79.724 92.7 80.1906 92.7ZM86.8533 92.74H87.5633V98H86.8533V92.74ZM87.2133 91.59C87.0666 91.59 86.9433 91.54 86.8433 91.44C86.7433 91.34 86.6933 91.22 86.6933 91.08C86.6933 90.9467 86.7433 90.83 86.8433 90.73C86.9433 90.63 87.0666 90.58 87.2133 90.58C87.3599 90.58 87.4833 90.63 87.5833 90.73C87.6833 90.8233 87.7333 90.9367 87.7333 91.07C87.7333 91.2167 87.6833 91.34 87.5833 91.44C87.4833 91.54 87.3599 91.59 87.2133 91.59ZM90.9488 98.05C90.5222 98.05 90.1122 97.99 89.7188 97.87C89.3322 97.7433 89.0288 97.5867 88.8088 97.4L89.1288 96.84C89.3488 97.0133 89.6255 97.1567 89.9588 97.27C90.2922 97.3767 90.6388 97.43 90.9988 97.43C91.4788 97.43 91.8322 97.3567 92.0588 97.21C92.2922 97.0567 92.4088 96.8433 92.4088 96.57C92.4088 96.3767 92.3455 96.2267 92.2188 96.12C92.0922 96.0067 91.9322 95.9233 91.7388 95.87C91.5455 95.81 91.2888 95.7533 90.9688 95.7C90.5422 95.62 90.1988 95.54 89.9388 95.46C89.6788 95.3733 89.4555 95.23 89.2688 95.03C89.0888 94.83 88.9988 94.5533 88.9988 94.2C88.9988 93.76 89.1822 93.4 89.5488 93.12C89.9155 92.84 90.4255 92.7 91.0788 92.7C91.4188 92.7 91.7588 92.7467 92.0988 92.84C92.4388 92.9267 92.7188 93.0433 92.9388 93.19L92.6288 93.76C92.1955 93.46 91.6788 93.31 91.0788 93.31C90.6255 93.31 90.2822 93.39 90.0488 93.55C89.8222 93.71 89.7088 93.92 89.7088 94.18C89.7088 94.38 89.7722 94.54 89.8988 94.66C90.0322 94.78 90.1955 94.87 90.3888 94.93C90.5822 94.9833 90.8488 95.04 91.1888 95.1C91.6088 95.18 91.9455 95.26 92.1988 95.34C92.4522 95.42 92.6688 95.5567 92.8488 95.75C93.0288 95.9433 93.1188 96.21 93.1188 96.55C93.1188 97.01 92.9255 97.3767 92.5388 97.65C92.1588 97.9167 91.6288 98.05 90.9488 98.05ZM98.4586 98.05C98.0319 98.05 97.6219 97.99 97.2286 97.87C96.8419 97.7433 96.5386 97.5867 96.3186 97.4L96.6386 96.84C96.8586 97.0133 97.1353 97.1567 97.4686 97.27C97.8019 97.3767 98.1486 97.43 98.5086 97.43C98.9886 97.43 99.3419 97.3567 99.5686 97.21C99.8019 97.0567 99.9186 96.8433 99.9186 96.57C99.9186 96.3767 99.8553 96.2267 99.7286 96.12C99.6019 96.0067 99.4419 95.9233 99.2486 95.87C99.0553 95.81 98.7986 95.7533 98.4786 95.7C98.0519 95.62 97.7086 95.54 97.4486 95.46C97.1886 95.3733 96.9653 95.23 96.7786 95.03C96.5986 94.83 96.5086 94.5533 96.5086 94.2C96.5086 93.76 96.6919 93.4 97.0586 93.12C97.4253 92.84 97.9353 92.7 98.5886 92.7C98.9286 92.7 99.2686 92.7467 99.6086 92.84C99.9486 92.9267 100.229 93.0433 100.449 93.19L100.139 93.76C99.7053 93.46 99.1886 93.31 98.5886 93.31C98.1353 93.31 97.7919 93.39 97.5586 93.55C97.3319 93.71 97.2186 93.92 97.2186 94.18C97.2186 94.38 97.2819 94.54 97.4086 94.66C97.5419 94.78 97.7053 94.87 97.8986 94.93C98.0919 94.9833 98.3586 95.04 98.6986 95.1C99.1186 95.18 99.4553 95.26 99.7086 95.34C99.9619 95.42 100.179 95.5567 100.359 95.75C100.539 95.9433 100.629 96.21 100.629 96.55C100.629 97.01 100.435 97.3767 100.049 97.65C99.6686 97.9167 99.1386 98.05 98.4586 98.05ZM101.941 92.74H102.651V98H101.941V92.74ZM102.301 91.59C102.155 91.59 102.031 91.54 101.931 91.44C101.831 91.34 101.781 91.22 101.781 91.08C101.781 90.9467 101.831 90.83 101.931 90.73C102.031 90.63 102.155 90.58 102.301 90.58C102.448 90.58 102.571 90.63 102.671 90.73C102.771 90.8233 102.821 90.9367 102.821 91.07C102.821 91.2167 102.771 91.34 102.671 91.44C102.571 91.54 102.448 91.59 102.301 91.59ZM111.187 92.7C111.847 92.7 112.363 92.89 112.737 93.27C113.117 93.65 113.307 94.21 113.307 94.95V98H112.597V95.02C112.597 94.4733 112.463 94.0567 112.197 93.77C111.937 93.4833 111.567 93.34 111.087 93.34C110.54 93.34 110.11 93.51 109.797 93.85C109.483 94.1833 109.327 94.6467 109.327 95.24V98H108.617V95.02C108.617 94.4733 108.483 94.0567 108.217 93.77C107.957 93.4833 107.583 93.34 107.097 93.34C106.557 93.34 106.127 93.51 105.807 93.85C105.493 94.1833 105.337 94.6467 105.337 95.24V98H104.627V92.74H105.307V93.7C105.493 93.38 105.753 93.1333 106.087 92.96C106.42 92.7867 106.803 92.7 107.237 92.7C107.677 92.7 108.057 92.7933 108.377 92.98C108.703 93.1667 108.947 93.4433 109.107 93.81C109.3 93.4633 109.577 93.1933 109.937 93C110.303 92.8 110.72 92.7 111.187 92.7ZM117.942 92.7C118.436 92.7 118.882 92.8133 119.282 93.04C119.682 93.26 119.996 93.5733 120.222 93.98C120.449 94.3867 120.562 94.85 120.562 95.37C120.562 95.8967 120.449 96.3633 120.222 96.77C119.996 97.1767 119.682 97.4933 119.282 97.72C118.889 97.94 118.442 98.05 117.942 98.05C117.516 98.05 117.129 97.9633 116.782 97.79C116.442 97.61 116.162 97.35 115.942 97.01V99.94H115.232V92.74H115.912V93.78C116.126 93.4333 116.406 93.1667 116.752 92.98C117.106 92.7933 117.502 92.7 117.942 92.7ZM117.892 97.42C118.259 97.42 118.592 97.3367 118.892 97.17C119.192 96.9967 119.426 96.7533 119.592 96.44C119.766 96.1267 119.852 95.77 119.852 95.37C119.852 94.97 119.766 94.6167 119.592 94.31C119.426 93.9967 119.192 93.7533 118.892 93.58C118.592 93.4067 118.259 93.32 117.892 93.32C117.519 93.32 117.182 93.4067 116.882 93.58C116.589 93.7533 116.356 93.9967 116.182 94.31C116.016 94.6167 115.932 94.97 115.932 95.37C115.932 95.77 116.016 96.1267 116.182 96.44C116.356 96.7533 116.589 96.9967 116.882 97.17C117.182 97.3367 117.519 97.42 117.892 97.42ZM122.01 90.58H122.72V98H122.01V90.58ZM129.115 92.74L126.485 98.63C126.272 99.1233 126.025 99.4733 125.745 99.68C125.465 99.8867 125.128 99.99 124.735 99.99C124.482 99.99 124.245 99.95 124.025 99.87C123.805 99.79 123.615 99.67 123.455 99.51L123.785 98.98C124.052 99.2467 124.372 99.38 124.745 99.38C124.985 99.38 125.188 99.3133 125.355 99.18C125.528 99.0467 125.688 98.82 125.835 98.5L126.065 97.99L123.715 92.74H124.455L126.435 97.21L128.415 92.74H129.115ZM137.532 90.58V98H136.852V96.96C136.639 97.3133 136.356 97.5833 136.002 97.77C135.656 97.9567 135.262 98.05 134.822 98.05C134.329 98.05 133.882 97.9367 133.482 97.71C133.082 97.4833 132.769 97.1667 132.542 96.76C132.316 96.3533 132.202 95.89 132.202 95.37C132.202 94.85 132.316 94.3867 132.542 93.98C132.769 93.5733 133.082 93.26 133.482 93.04C133.882 92.8133 134.329 92.7 134.822 92.7C135.249 92.7 135.632 92.79 135.972 92.97C136.319 93.1433 136.602 93.4 136.822 93.74V90.58H137.532ZM134.882 97.42C135.249 97.42 135.579 97.3367 135.872 97.17C136.172 96.9967 136.406 96.7533 136.572 96.44C136.746 96.1267 136.832 95.77 136.832 95.37C136.832 94.97 136.746 94.6133 136.572 94.3C136.406 93.9867 136.172 93.7467 135.872 93.58C135.579 93.4067 135.249 93.32 134.882 93.32C134.509 93.32 134.172 93.4067 133.872 93.58C133.579 93.7467 133.346 93.9867 133.172 94.3C133.006 94.6133 132.922 94.97 132.922 95.37C132.922 95.77 133.006 96.1267 133.172 96.44C133.346 96.7533 133.579 96.9967 133.872 97.17C134.172 97.3367 134.509 97.42 134.882 97.42ZM144.25 92.74V98H143.57V97.04C143.383 97.36 143.126 97.61 142.8 97.79C142.473 97.9633 142.1 98.05 141.68 98.05C140.993 98.05 140.45 97.86 140.05 97.48C139.656 97.0933 139.46 96.53 139.46 95.79V92.74H140.17V95.72C140.17 96.2733 140.306 96.6933 140.58 96.98C140.853 97.2667 141.243 97.41 141.75 97.41C142.303 97.41 142.74 97.2433 143.06 96.91C143.38 96.57 143.54 96.1 143.54 95.5V92.74H144.25ZM152.798 92.7C153.458 92.7 153.975 92.89 154.348 93.27C154.728 93.65 154.918 94.21 154.918 94.95V98H154.208V95.02C154.208 94.4733 154.075 94.0567 153.808 93.77C153.548 93.4833 153.178 93.34 152.698 93.34C152.151 93.34 151.721 93.51 151.408 93.85C151.095 94.1833 150.938 94.6467 150.938 95.24V98H150.228V95.02C150.228 94.4733 150.095 94.0567 149.828 93.77C149.568 93.4833 149.195 93.34 148.708 93.34C148.168 93.34 147.738 93.51 147.418 93.85C147.105 94.1833 146.948 94.6467 146.948 95.24V98H146.238V92.74H146.918V93.7C147.105 93.38 147.365 93.1333 147.698 92.96C148.031 92.7867 148.415 92.7 148.848 92.7C149.288 92.7 149.668 92.7933 149.988 92.98C150.315 93.1667 150.558 93.4433 150.718 93.81C150.911 93.4633 151.188 93.1933 151.548 93C151.915 92.8 152.331 92.7 152.798 92.7ZM163.404 92.7C164.064 92.7 164.58 92.89 164.954 93.27C165.334 93.65 165.524 94.21 165.524 94.95V98H164.814V95.02C164.814 94.4733 164.68 94.0567 164.414 93.77C164.154 93.4833 163.784 93.34 163.304 93.34C162.757 93.34 162.327 93.51 162.014 93.85C161.7 94.1833 161.544 94.6467 161.544 95.24V98H160.834V95.02C160.834 94.4733 160.7 94.0567 160.434 93.77C160.174 93.4833 159.8 93.34 159.314 93.34C158.774 93.34 158.344 93.51 158.024 93.85C157.71 94.1833 157.554 94.6467 157.554 95.24V98H156.844V92.74H157.524V93.7C157.71 93.38 157.97 93.1333 158.304 92.96C158.637 92.7867 159.02 92.7 159.454 92.7C159.894 92.7 160.274 92.7933 160.594 92.98C160.92 93.1667 161.164 93.4433 161.324 93.81C161.517 93.4633 161.794 93.1933 162.154 93C162.52 92.8 162.937 92.7 163.404 92.7ZM171.771 92.74L169.141 98.63C168.928 99.1233 168.681 99.4733 168.401 99.68C168.121 99.8867 167.785 99.99 167.391 99.99C167.138 99.99 166.901 99.95 166.681 99.87C166.461 99.79 166.271 99.67 166.111 99.51L166.441 98.98C166.708 99.2467 167.028 99.38 167.401 99.38C167.641 99.38 167.845 99.3133 168.011 99.18C168.185 99.0467 168.345 98.82 168.491 98.5L168.721 97.99L166.371 92.74H167.111L169.091 97.21L171.071 92.74H171.771ZM178.158 97.68C178.025 97.8 177.858 97.8933 177.658 97.96C177.465 98.02 177.262 98.05 177.048 98.05C176.555 98.05 176.175 97.9167 175.908 97.65C175.642 97.3833 175.508 97.0067 175.508 96.52V93.34H174.568V92.74H175.508V91.59H176.218V92.74H177.818V93.34H176.218V96.48C176.218 96.7933 176.295 97.0333 176.448 97.2C176.608 97.36 176.835 97.44 177.128 97.44C177.275 97.44 177.415 97.4167 177.548 97.37C177.688 97.3233 177.808 97.2567 177.908 97.17L178.158 97.68ZM183.845 95.59H179.445C179.485 96.1367 179.695 96.58 180.075 96.92C180.455 97.2533 180.935 97.42 181.515 97.42C181.842 97.42 182.142 97.3633 182.415 97.25C182.689 97.13 182.925 96.9567 183.125 96.73L183.525 97.19C183.292 97.47 182.999 97.6833 182.645 97.83C182.299 97.9767 181.915 98.05 181.495 98.05C180.955 98.05 180.475 97.9367 180.055 97.71C179.642 97.4767 179.319 97.1567 179.085 96.75C178.852 96.3433 178.735 95.8833 178.735 95.37C178.735 94.8567 178.845 94.3967 179.065 93.99C179.292 93.5833 179.599 93.2667 179.985 93.04C180.379 92.8133 180.819 92.7 181.305 92.7C181.792 92.7 182.229 92.8133 182.615 93.04C183.002 93.2667 183.305 93.5833 183.525 93.99C183.745 94.39 183.855 94.85 183.855 95.37L183.845 95.59ZM181.305 93.31C180.799 93.31 180.372 93.4733 180.025 93.8C179.685 94.12 179.492 94.54 179.445 95.06H183.175C183.129 94.54 182.932 94.12 182.585 93.8C182.245 93.4733 181.819 93.31 181.305 93.31ZM188.504 98L186.834 95.8L185.154 98H184.354L186.434 95.3L184.454 92.74H185.254L186.834 94.8L188.414 92.74H189.194L187.214 95.3L189.314 98H188.504ZM193.266 97.68C193.133 97.8 192.966 97.8933 192.766 97.96C192.573 98.02 192.369 98.05 192.156 98.05C191.663 98.05 191.283 97.9167 191.016 97.65C190.749 97.3833 190.616 97.0067 190.616 96.52V93.34H189.676V92.74H190.616V91.59H191.326V92.74H192.926V93.34H191.326V96.48C191.326 96.7933 191.403 97.0333 191.556 97.2C191.716 97.36 191.943 97.44 192.236 97.44C192.383 97.44 192.523 97.4167 192.656 97.37C192.796 97.3233 192.916 97.2567 193.016 97.17L193.266 97.68ZM199.326 98.05C198.819 98.05 198.362 97.9367 197.956 97.71C197.549 97.4767 197.229 97.1567 196.996 96.75C196.762 96.3433 196.646 95.8833 196.646 95.37C196.646 94.8567 196.762 94.3967 196.996 93.99C197.229 93.5833 197.549 93.2667 197.956 93.04C198.362 92.8133 198.819 92.7 199.326 92.7C199.832 92.7 200.289 92.8133 200.696 93.04C201.102 93.2667 201.419 93.5833 201.646 93.99C201.879 94.3967 201.996 94.8567 201.996 95.37C201.996 95.8833 201.879 96.3433 201.646 96.75C201.419 97.1567 201.102 97.4767 200.696 97.71C200.289 97.9367 199.832 98.05 199.326 98.05ZM199.326 97.42C199.699 97.42 200.032 97.3367 200.326 97.17C200.626 96.9967 200.859 96.7533 201.026 96.44C201.192 96.1267 201.276 95.77 201.276 95.37C201.276 94.97 201.192 94.6133 201.026 94.3C200.859 93.9867 200.626 93.7467 200.326 93.58C200.032 93.4067 199.699 93.32 199.326 93.32C198.952 93.32 198.616 93.4067 198.316 93.58C198.022 93.7467 197.789 93.9867 197.616 94.3C197.449 94.6133 197.366 94.97 197.366 95.37C197.366 95.77 197.449 96.1267 197.616 96.44C197.789 96.7533 198.022 96.9967 198.316 97.17C198.616 97.3367 198.952 97.42 199.326 97.42ZM205.185 91.13C204.878 91.13 204.645 91.2133 204.485 91.38C204.332 91.5467 204.255 91.7933 204.255 92.12V92.74H205.875V93.34H204.275V98H203.565V93.34H202.625V92.74H203.565V92.09C203.565 91.61 203.702 91.23 203.975 90.95C204.255 90.67 204.648 90.53 205.155 90.53C205.355 90.53 205.548 90.56 205.735 90.62C205.922 90.6733 206.078 90.7533 206.205 90.86L205.965 91.39C205.758 91.2167 205.498 91.13 205.185 91.13ZM212.221 97.68C212.088 97.8 211.921 97.8933 211.721 97.96C211.528 98.02 211.324 98.05 211.111 98.05C210.618 98.05 210.238 97.9167 209.971 97.65C209.704 97.3833 209.571 97.0067 209.571 96.52V93.34H208.631V92.74H209.571V91.59H210.281V92.74H211.881V93.34H210.281V96.48C210.281 96.7933 210.358 97.0333 210.511 97.2C210.671 97.36 210.898 97.44 211.191 97.44C211.338 97.44 211.478 97.4167 211.611 97.37C211.751 97.3233 211.871 97.2567 211.971 97.17L212.221 97.68ZM216.193 92.7C216.853 92.7 217.377 92.8933 217.763 93.28C218.157 93.66 218.353 94.2167 218.353 94.95V98H217.643V95.02C217.643 94.4733 217.507 94.0567 217.233 93.77C216.96 93.4833 216.57 93.34 216.063 93.34C215.497 93.34 215.047 93.51 214.713 93.85C214.387 94.1833 214.223 94.6467 214.223 95.24V98H213.513V90.58H214.223V93.66C214.417 93.3533 214.683 93.1167 215.023 92.95C215.363 92.7833 215.753 92.7 216.193 92.7ZM224.881 95.59H220.481C220.521 96.1367 220.731 96.58 221.111 96.92C221.491 97.2533 221.971 97.42 222.551 97.42C222.877 97.42 223.177 97.3633 223.451 97.25C223.724 97.13 223.961 96.9567 224.161 96.73L224.561 97.19C224.327 97.47 224.034 97.6833 223.681 97.83C223.334 97.9767 222.951 98.05 222.531 98.05C221.991 98.05 221.511 97.9367 221.091 97.71C220.677 97.4767 220.354 97.1567 220.121 96.75C219.887 96.3433 219.771 95.8833 219.771 95.37C219.771 94.8567 219.881 94.3967 220.101 93.99C220.327 93.5833 220.634 93.2667 221.021 93.04C221.414 92.8133 221.854 92.7 222.341 92.7C222.827 92.7 223.264 92.8133 223.651 93.04C224.037 93.2667 224.341 93.5833 224.561 93.99C224.781 94.39 224.891 94.85 224.891 95.37L224.881 95.59ZM222.341 93.31C221.834 93.31 221.407 93.4733 221.061 93.8C220.721 94.12 220.527 94.54 220.481 95.06H224.211C224.164 94.54 223.967 94.12 223.621 93.8C223.281 93.4733 222.854 93.31 222.341 93.31ZM19.7 108.7C20.1933 108.7 20.64 108.813 21.04 109.04C21.44 109.26 21.7533 109.573 21.98 109.98C22.2067 110.387 22.32 110.85 22.32 111.37C22.32 111.897 22.2067 112.363 21.98 112.77C21.7533 113.177 21.44 113.493 21.04 113.72C20.6467 113.94 20.2 114.05 19.7 114.05C19.2733 114.05 18.8867 113.963 18.54 113.79C18.2 113.61 17.92 113.35 17.7 113.01V115.94H16.99V108.74H17.67V109.78C17.8833 109.433 18.1633 109.167 18.51 108.98C18.8633 108.793 19.26 108.7 19.7 108.7ZM19.65 113.42C20.0167 113.42 20.35 113.337 20.65 113.17C20.95 112.997 21.1833 112.753 21.35 112.44C21.5233 112.127 21.61 111.77 21.61 111.37C21.61 110.97 21.5233 110.617 21.35 110.31C21.1833 109.997 20.95 109.753 20.65 109.58C20.35 109.407 20.0167 109.32 19.65 109.32C19.2767 109.32 18.94 109.407 18.64 109.58C18.3467 109.753 18.1133 109.997 17.94 110.31C17.7733 110.617 17.69 110.97 17.69 111.37C17.69 111.77 17.7733 112.127 17.94 112.44C18.1133 112.753 18.3467 112.997 18.64 113.17C18.94 113.337 19.2767 113.42 19.65 113.42ZM24.4473 109.77C24.614 109.417 24.8607 109.15 25.1873 108.97C25.5207 108.79 25.9307 108.7 26.4173 108.7V109.39L26.2473 109.38C25.694 109.38 25.2607 109.55 24.9473 109.89C24.634 110.23 24.4773 110.707 24.4773 111.32V114H23.7673V108.74H24.4473V109.77ZM27.7029 108.74H28.4129V114H27.7029V108.74ZM28.0629 107.59C27.9162 107.59 27.7929 107.54 27.6929 107.44C27.5929 107.34 27.5429 107.22 27.5429 107.08C27.5429 106.947 27.5929 106.83 27.6929 106.73C27.7929 106.63 27.9162 106.58 28.0629 106.58C28.2096 106.58 28.3329 106.63 28.4329 106.73C28.5329 106.823 28.5829 106.937 28.5829 107.07C28.5829 107.217 28.5329 107.34 28.4329 107.44C28.3329 107.54 28.2096 107.59 28.0629 107.59ZM33.0684 108.7C33.7284 108.7 34.2518 108.893 34.6384 109.28C35.0318 109.66 35.2284 110.217 35.2284 110.95V114H34.5184V111.02C34.5184 110.473 34.3818 110.057 34.1084 109.77C33.8351 109.483 33.4451 109.34 32.9384 109.34C32.3718 109.34 31.9218 109.51 31.5884 109.85C31.2618 110.183 31.0984 110.647 31.0984 111.24V114H30.3884V108.74H31.0684V109.71C31.2618 109.39 31.5284 109.143 31.8684 108.97C32.2151 108.79 32.6151 108.7 33.0684 108.7ZM39.926 113.68C39.7927 113.8 39.626 113.893 39.426 113.96C39.2327 114.02 39.0293 114.05 38.816 114.05C38.3227 114.05 37.9427 113.917 37.676 113.65C37.4093 113.383 37.276 113.007 37.276 112.52V109.34H36.336V108.74H37.276V107.59H37.986V108.74H39.586V109.34H37.986V112.48C37.986 112.793 38.0627 113.033 38.216 113.2C38.376 113.36 38.6027 113.44 38.896 113.44C39.0427 113.44 39.1827 113.417 39.316 113.37C39.456 113.323 39.576 113.257 39.676 113.17L39.926 113.68ZM41.2185 108.74H41.9285V114H41.2185V108.74ZM41.5785 107.59C41.4318 107.59 41.3085 107.54 41.2085 107.44C41.1085 107.34 41.0585 107.22 41.0585 107.08C41.0585 106.947 41.1085 106.83 41.2085 106.73C41.3085 106.63 41.4318 106.58 41.5785 106.58C41.7252 106.58 41.8485 106.63 41.9485 106.73C42.0485 106.823 42.0985 106.937 42.0985 107.07C42.0985 107.217 42.0485 107.34 41.9485 107.44C41.8485 107.54 41.7252 107.59 41.5785 107.59ZM46.5841 108.7C47.2441 108.7 47.7674 108.893 48.1541 109.28C48.5474 109.66 48.7441 110.217 48.7441 110.95V114H48.0341V111.02C48.0341 110.473 47.8974 110.057 47.6241 109.77C47.3507 109.483 46.9607 109.34 46.4541 109.34C45.8874 109.34 45.4374 109.51 45.1041 109.85C44.7774 110.183 44.6141 110.647 44.6141 111.24V114H43.9041V108.74H44.5841V109.71C44.7774 109.39 45.0441 109.143 45.3841 108.97C45.7307 108.79 46.1307 108.7 46.5841 108.7ZM55.5612 108.74V113.36C55.5612 114.253 55.3412 114.913 54.9012 115.34C54.4678 115.773 53.8112 115.99 52.9312 115.99C52.4445 115.99 51.9812 115.917 51.5412 115.77C51.1078 115.63 50.7545 115.433 50.4812 115.18L50.8412 114.64C51.0945 114.867 51.4012 115.043 51.7612 115.17C52.1278 115.297 52.5112 115.36 52.9112 115.36C53.5778 115.36 54.0678 115.203 54.3812 114.89C54.6945 114.583 54.8512 114.103 54.8512 113.45V112.78C54.6312 113.113 54.3412 113.367 53.9812 113.54C53.6278 113.713 53.2345 113.8 52.8012 113.8C52.3078 113.8 51.8578 113.693 51.4512 113.48C51.0512 113.26 50.7345 112.957 50.5012 112.57C50.2745 112.177 50.1612 111.733 50.1612 111.24C50.1612 110.747 50.2745 110.307 50.5012 109.92C50.7345 109.533 51.0512 109.233 51.4512 109.02C51.8512 108.807 52.3012 108.7 52.8012 108.7C53.2478 108.7 53.6512 108.79 54.0112 108.97C54.3712 109.15 54.6612 109.41 54.8812 109.75V108.74H55.5612ZM52.8712 113.17C53.2512 113.17 53.5945 113.09 53.9012 112.93C54.2078 112.763 54.4445 112.533 54.6112 112.24C54.7845 111.947 54.8712 111.613 54.8712 111.24C54.8712 110.867 54.7845 110.537 54.6112 110.25C54.4445 109.957 54.2078 109.73 53.9012 109.57C53.6012 109.403 53.2578 109.32 52.8712 109.32C52.4912 109.32 52.1478 109.4 51.8412 109.56C51.5412 109.72 51.3045 109.947 51.1312 110.24C50.9645 110.533 50.8812 110.867 50.8812 111.24C50.8812 111.613 50.9645 111.947 51.1312 112.24C51.3045 112.533 51.5412 112.763 51.8412 112.93C52.1478 113.09 52.4912 113.17 52.8712 113.17ZM62.0038 108.7C62.6905 108.7 63.2172 108.873 63.5838 109.22C63.9505 109.56 64.1338 110.067 64.1338 110.74V114H63.4538V113.18C63.2938 113.453 63.0572 113.667 62.7438 113.82C62.4372 113.973 62.0705 114.05 61.6438 114.05C61.0572 114.05 60.5905 113.91 60.2438 113.63C59.8972 113.35 59.7238 112.98 59.7238 112.52C59.7238 112.073 59.8838 111.713 60.2038 111.44C60.5305 111.167 61.0472 111.03 61.7538 111.03H63.4238V110.71C63.4238 110.257 63.2972 109.913 63.0438 109.68C62.7905 109.44 62.4205 109.32 61.9338 109.32C61.6005 109.32 61.2805 109.377 60.9738 109.49C60.6672 109.597 60.4038 109.747 60.1838 109.94L59.8638 109.41C60.1305 109.183 60.4505 109.01 60.8238 108.89C61.1972 108.763 61.5905 108.7 62.0038 108.7ZM61.7538 113.49C62.1538 113.49 62.4972 113.4 62.7838 113.22C63.0705 113.033 63.2838 112.767 63.4238 112.42V111.56H61.7738C60.8738 111.56 60.4238 111.873 60.4238 112.5C60.4238 112.807 60.5405 113.05 60.7738 113.23C61.0072 113.403 61.3338 113.49 61.7538 113.49ZM68.7423 108.7C69.4023 108.7 69.9256 108.893 70.3123 109.28C70.7056 109.66 70.9023 110.217 70.9023 110.95V114H70.1923V111.02C70.1923 110.473 70.0556 110.057 69.7823 109.77C69.5089 109.483 69.1189 109.34 68.6123 109.34C68.0456 109.34 67.5956 109.51 67.2623 109.85C66.9356 110.183 66.7723 110.647 66.7723 111.24V114H66.0623V108.74H66.7423V109.71C66.9356 109.39 67.2023 109.143 67.5423 108.97C67.8889 108.79 68.2889 108.7 68.7423 108.7ZM77.6494 106.58V114H76.9694V112.96C76.756 113.313 76.4727 113.583 76.1194 113.77C75.7727 113.957 75.3794 114.05 74.9394 114.05C74.446 114.05 73.9994 113.937 73.5994 113.71C73.1994 113.483 72.886 113.167 72.6594 112.76C72.4327 112.353 72.3194 111.89 72.3194 111.37C72.3194 110.85 72.4327 110.387 72.6594 109.98C72.886 109.573 73.1994 109.26 73.5994 109.04C73.9994 108.813 74.446 108.7 74.9394 108.7C75.366 108.7 75.7494 108.79 76.0894 108.97C76.436 109.143 76.7194 109.4 76.9394 109.74V106.58H77.6494ZM74.9994 113.42C75.366 113.42 75.696 113.337 75.9894 113.17C76.2894 112.997 76.5227 112.753 76.6894 112.44C76.8627 112.127 76.9494 111.77 76.9494 111.37C76.9494 110.97 76.8627 110.613 76.6894 110.3C76.5227 109.987 76.2894 109.747 75.9894 109.58C75.696 109.407 75.366 109.32 74.9994 109.32C74.626 109.32 74.2894 109.407 73.9894 109.58C73.696 109.747 73.4627 109.987 73.2894 110.3C73.1227 110.613 73.0394 110.97 73.0394 111.37C73.0394 111.77 73.1227 112.127 73.2894 112.44C73.4627 112.753 73.696 112.997 73.9894 113.17C74.2894 113.337 74.626 113.42 74.9994 113.42ZM85.0139 113.68C84.8806 113.8 84.7139 113.893 84.5139 113.96C84.3206 114.02 84.1172 114.05 83.9039 114.05C83.4106 114.05 83.0306 113.917 82.7639 113.65C82.4972 113.383 82.3639 113.007 82.3639 112.52V109.34H81.4239V108.74H82.3639V107.59H83.0739V108.74H84.6739V109.34H83.0739V112.48C83.0739 112.793 83.1506 113.033 83.3039 113.2C83.4639 113.36 83.6906 113.44 83.9839 113.44C84.1306 113.44 84.2706 113.417 84.4039 113.37C84.5439 113.323 84.6639 113.257 84.7639 113.17L85.0139 113.68ZM90.6288 108.74L87.9988 114.63C87.7854 115.123 87.5388 115.473 87.2588 115.68C86.9788 115.887 86.6421 115.99 86.2488 115.99C85.9954 115.99 85.7588 115.95 85.5388 115.87C85.3188 115.79 85.1287 115.67 84.9687 115.51L85.2988 114.98C85.5654 115.247 85.8854 115.38 86.2588 115.38C86.4988 115.38 86.7021 115.313 86.8688 115.18C87.0421 115.047 87.2021 114.82 87.3488 114.5L87.5788 113.99L85.2288 108.74H85.9688L87.9488 113.21L89.9288 108.74H90.6288ZM94.3387 108.7C94.832 108.7 95.2787 108.813 95.6787 109.04C96.0787 109.26 96.392 109.573 96.6187 109.98C96.8453 110.387 96.9587 110.85 96.9587 111.37C96.9587 111.897 96.8453 112.363 96.6187 112.77C96.392 113.177 96.0787 113.493 95.6787 113.72C95.2853 113.94 94.8387 114.05 94.3387 114.05C93.912 114.05 93.5253 113.963 93.1787 113.79C92.8387 113.61 92.5587 113.35 92.3387 113.01V115.94H91.6287V108.74H92.3087V109.78C92.522 109.433 92.802 109.167 93.1487 108.98C93.502 108.793 93.8987 108.7 94.3387 108.7ZM94.2887 113.42C94.6553 113.42 94.9887 113.337 95.2887 113.17C95.5887 112.997 95.822 112.753 95.9887 112.44C96.162 112.127 96.2487 111.77 96.2487 111.37C96.2487 110.97 96.162 110.617 95.9887 110.31C95.822 109.997 95.5887 109.753 95.2887 109.58C94.9887 109.407 94.6553 109.32 94.2887 109.32C93.9153 109.32 93.5787 109.407 93.2787 109.58C92.9853 109.753 92.752 109.997 92.5787 110.31C92.412 110.617 92.3287 110.97 92.3287 111.37C92.3287 111.77 92.412 112.127 92.5787 112.44C92.752 112.753 92.9853 112.997 93.2787 113.17C93.5787 113.337 93.9153 113.42 94.2887 113.42ZM102.986 111.59H98.586C98.626 112.137 98.836 112.58 99.216 112.92C99.596 113.253 100.076 113.42 100.656 113.42C100.983 113.42 101.283 113.363 101.556 113.25C101.829 113.13 102.066 112.957 102.266 112.73L102.666 113.19C102.433 113.47 102.139 113.683 101.786 113.83C101.439 113.977 101.056 114.05 100.636 114.05C100.096 114.05 99.616 113.937 99.196 113.71C98.7827 113.477 98.4593 113.157 98.226 112.75C97.9927 112.343 97.876 111.883 97.876 111.37C97.876 110.857 97.986 110.397 98.206 109.99C98.4327 109.583 98.7393 109.267 99.126 109.04C99.5193 108.813 99.9593 108.7 100.446 108.7C100.933 108.7 101.369 108.813 101.756 109.04C102.143 109.267 102.446 109.583 102.666 109.99C102.886 110.39 102.996 110.85 102.996 111.37L102.986 111.59ZM100.446 109.31C99.9393 109.31 99.5127 109.473 99.166 109.8C98.826 110.12 98.6327 110.54 98.586 111.06H102.316C102.269 110.54 102.073 110.12 101.726 109.8C101.386 109.473 100.959 109.31 100.446 109.31ZM105.851 114.05C105.425 114.05 105.015 113.99 104.621 113.87C104.235 113.743 103.931 113.587 103.711 113.4L104.031 112.84C104.251 113.013 104.528 113.157 104.861 113.27C105.195 113.377 105.541 113.43 105.901 113.43C106.381 113.43 106.735 113.357 106.961 113.21C107.195 113.057 107.311 112.843 107.311 112.57C107.311 112.377 107.248 112.227 107.121 112.12C106.995 112.007 106.835 111.923 106.641 111.87C106.448 111.81 106.191 111.753 105.871 111.7C105.445 111.62 105.101 111.54 104.841 111.46C104.581 111.373 104.358 111.23 104.171 111.03C103.991 110.83 103.901 110.553 103.901 110.2C103.901 109.76 104.085 109.4 104.451 109.12C104.818 108.84 105.328 108.7 105.981 108.7C106.321 108.7 106.661 108.747 107.001 108.84C107.341 108.927 107.621 109.043 107.841 109.19L107.531 109.76C107.098 109.46 106.581 109.31 105.981 109.31C105.528 109.31 105.185 109.39 104.951 109.55C104.725 109.71 104.611 109.92 104.611 110.18C104.611 110.38 104.675 110.54 104.801 110.66C104.935 110.78 105.098 110.87 105.291 110.93C105.485 110.983 105.751 111.04 106.091 111.1C106.511 111.18 106.848 111.26 107.101 111.34C107.355 111.42 107.571 111.557 107.751 111.75C107.931 111.943 108.021 112.21 108.021 112.55C108.021 113.01 107.828 113.377 107.441 113.65C107.061 113.917 106.531 114.05 105.851 114.05ZM113.914 111.59H109.514C109.554 112.137 109.764 112.58 110.144 112.92C110.524 113.253 111.004 113.42 111.584 113.42C111.91 113.42 112.21 113.363 112.484 113.25C112.757 113.13 112.994 112.957 113.194 112.73L113.594 113.19C113.36 113.47 113.067 113.683 112.714 113.83C112.367 113.977 111.984 114.05 111.564 114.05C111.024 114.05 110.544 113.937 110.124 113.71C109.71 113.477 109.387 113.157 109.154 112.75C108.92 112.343 108.804 111.883 108.804 111.37C108.804 110.857 108.914 110.397 109.134 109.99C109.36 109.583 109.667 109.267 110.054 109.04C110.447 108.813 110.887 108.7 111.374 108.7C111.86 108.7 112.297 108.813 112.684 109.04C113.07 109.267 113.374 109.583 113.594 109.99C113.814 110.39 113.924 110.85 113.924 111.37L113.914 111.59ZM111.374 109.31C110.867 109.31 110.44 109.473 110.094 109.8C109.754 110.12 109.56 110.54 109.514 111.06H113.244C113.197 110.54 113 110.12 112.654 109.8C112.314 109.473 111.887 109.31 111.374 109.31ZM118.139 113.68C118.006 113.8 117.839 113.893 117.639 113.96C117.446 114.02 117.242 114.05 117.029 114.05C116.536 114.05 116.156 113.917 115.889 113.65C115.622 113.383 115.489 113.007 115.489 112.52V109.34H114.549V108.74H115.489V107.59H116.199V108.74H117.799V109.34H116.199V112.48C116.199 112.793 116.276 113.033 116.429 113.2C116.589 113.36 116.816 113.44 117.109 113.44C117.256 113.44 117.396 113.417 117.529 113.37C117.669 113.323 117.789 113.257 117.889 113.17L118.139 113.68ZM122.065 113.68C121.931 113.8 121.765 113.893 121.565 113.96C121.371 114.02 121.168 114.05 120.955 114.05C120.461 114.05 120.081 113.917 119.815 113.65C119.548 113.383 119.415 113.007 119.415 112.52V109.34H118.475V108.74H119.415V107.59H120.125V108.74H121.725V109.34H120.125V112.48C120.125 112.793 120.201 113.033 120.355 113.2C120.515 113.36 120.741 113.44 121.035 113.44C121.181 113.44 121.321 113.417 121.455 113.37C121.595 113.323 121.715 113.257 121.815 113.17L122.065 113.68ZM123.357 108.74H124.067V114H123.357V108.74ZM123.717 107.59C123.571 107.59 123.447 107.54 123.347 107.44C123.247 107.34 123.197 107.22 123.197 107.08C123.197 106.947 123.247 106.83 123.347 106.73C123.447 106.63 123.571 106.58 123.717 106.58C123.864 106.58 123.987 106.63 124.087 106.73C124.187 106.823 124.237 106.937 124.237 107.07C124.237 107.217 124.187 107.34 124.087 107.44C123.987 107.54 123.864 107.59 123.717 107.59ZM128.723 108.7C129.383 108.7 129.906 108.893 130.293 109.28C130.686 109.66 130.883 110.217 130.883 110.95V114H130.173V111.02C130.173 110.473 130.036 110.057 129.763 109.77C129.489 109.483 129.099 109.34 128.593 109.34C128.026 109.34 127.576 109.51 127.243 109.85C126.916 110.183 126.753 110.647 126.753 111.24V114H126.043V108.74H126.723V109.71C126.916 109.39 127.183 109.143 127.523 108.97C127.869 108.79 128.269 108.7 128.723 108.7ZM137.7 108.74V113.36C137.7 114.253 137.48 114.913 137.04 115.34C136.607 115.773 135.95 115.99 135.07 115.99C134.583 115.99 134.12 115.917 133.68 115.77C133.247 115.63 132.893 115.433 132.62 115.18L132.98 114.64C133.233 114.867 133.54 115.043 133.9 115.17C134.267 115.297 134.65 115.36 135.05 115.36C135.717 115.36 136.207 115.203 136.52 114.89C136.833 114.583 136.99 114.103 136.99 113.45V112.78C136.77 113.113 136.48 113.367 136.12 113.54C135.767 113.713 135.373 113.8 134.94 113.8C134.447 113.8 133.997 113.693 133.59 113.48C133.19 113.26 132.873 112.957 132.64 112.57C132.413 112.177 132.3 111.733 132.3 111.24C132.3 110.747 132.413 110.307 132.64 109.92C132.873 109.533 133.19 109.233 133.59 109.02C133.99 108.807 134.44 108.7 134.94 108.7C135.387 108.7 135.79 108.79 136.15 108.97C136.51 109.15 136.8 109.41 137.02 109.75V108.74H137.7ZM135.01 113.17C135.39 113.17 135.733 113.09 136.04 112.93C136.347 112.763 136.583 112.533 136.75 112.24C136.923 111.947 137.01 111.613 137.01 111.24C137.01 110.867 136.923 110.537 136.75 110.25C136.583 109.957 136.347 109.73 136.04 109.57C135.74 109.403 135.397 109.32 135.01 109.32C134.63 109.32 134.287 109.4 133.98 109.56C133.68 109.72 133.443 109.947 133.27 110.24C133.103 110.533 133.02 110.867 133.02 111.24C133.02 111.613 133.103 111.947 133.27 112.24C133.443 112.533 133.68 112.763 133.98 112.93C134.287 113.09 134.63 113.17 135.01 113.17ZM142.303 108.74H143.013V114H142.303V108.74ZM142.663 107.59C142.516 107.59 142.393 107.54 142.293 107.44C142.193 107.34 142.143 107.22 142.143 107.08C142.143 106.947 142.193 106.83 142.293 106.73C142.393 106.63 142.516 106.58 142.663 106.58C142.809 106.58 142.933 106.63 143.033 106.73C143.133 106.823 143.183 106.937 143.183 107.07C143.183 107.217 143.133 107.34 143.033 107.44C142.933 107.54 142.809 107.59 142.663 107.59ZM147.668 108.7C148.328 108.7 148.851 108.893 149.238 109.28C149.631 109.66 149.828 110.217 149.828 110.95V114H149.118V111.02C149.118 110.473 148.981 110.057 148.708 109.77C148.435 109.483 148.045 109.34 147.538 109.34C146.971 109.34 146.521 109.51 146.188 109.85C145.861 110.183 145.698 110.647 145.698 111.24V114H144.988V108.74H145.668V109.71C145.861 109.39 146.128 109.143 146.468 108.97C146.815 108.79 147.215 108.7 147.668 108.7ZM156.575 106.58V114H155.895V112.96C155.682 113.313 155.398 113.583 155.045 113.77C154.698 113.957 154.305 114.05 153.865 114.05C153.372 114.05 152.925 113.937 152.525 113.71C152.125 113.483 151.812 113.167 151.585 112.76C151.358 112.353 151.245 111.89 151.245 111.37C151.245 110.85 151.358 110.387 151.585 109.98C151.812 109.573 152.125 109.26 152.525 109.04C152.925 108.813 153.372 108.7 153.865 108.7C154.292 108.7 154.675 108.79 155.015 108.97C155.362 109.143 155.645 109.4 155.865 109.74V106.58H156.575ZM153.925 113.42C154.292 113.42 154.622 113.337 154.915 113.17C155.215 112.997 155.448 112.753 155.615 112.44C155.788 112.127 155.875 111.77 155.875 111.37C155.875 110.97 155.788 110.613 155.615 110.3C155.448 109.987 155.215 109.747 154.915 109.58C154.622 109.407 154.292 109.32 153.925 109.32C153.552 109.32 153.215 109.407 152.915 109.58C152.622 109.747 152.388 109.987 152.215 110.3C152.048 110.613 151.965 110.97 151.965 111.37C151.965 111.77 152.048 112.127 152.215 112.44C152.388 112.753 152.622 112.997 152.915 113.17C153.215 113.337 153.552 113.42 153.925 113.42ZM163.293 108.74V114H162.612V113.04C162.426 113.36 162.169 113.61 161.843 113.79C161.516 113.963 161.143 114.05 160.723 114.05C160.036 114.05 159.493 113.86 159.093 113.48C158.699 113.093 158.503 112.53 158.503 111.79V108.74H159.213V111.72C159.213 112.273 159.349 112.693 159.623 112.98C159.896 113.267 160.286 113.41 160.793 113.41C161.346 113.41 161.783 113.243 162.103 112.91C162.423 112.57 162.583 112.1 162.583 111.5V108.74H163.293ZM166.691 114.05C166.264 114.05 165.854 113.99 165.461 113.87C165.074 113.743 164.771 113.587 164.551 113.4L164.871 112.84C165.091 113.013 165.368 113.157 165.701 113.27C166.034 113.377 166.381 113.43 166.741 113.43C167.221 113.43 167.574 113.357 167.801 113.21C168.034 113.057 168.151 112.843 168.151 112.57C168.151 112.377 168.088 112.227 167.961 112.12C167.834 112.007 167.674 111.923 167.481 111.87C167.288 111.81 167.031 111.753 166.711 111.7C166.284 111.62 165.941 111.54 165.681 111.46C165.421 111.373 165.198 111.23 165.011 111.03C164.831 110.83 164.741 110.553 164.741 110.2C164.741 109.76 164.924 109.4 165.291 109.12C165.658 108.84 166.168 108.7 166.821 108.7C167.161 108.7 167.501 108.747 167.841 108.84C168.181 108.927 168.461 109.043 168.681 109.19L168.371 109.76C167.938 109.46 167.421 109.31 166.821 109.31C166.368 109.31 166.024 109.39 165.791 109.55C165.564 109.71 165.451 109.92 165.451 110.18C165.451 110.38 165.514 110.54 165.641 110.66C165.774 110.78 165.938 110.87 166.131 110.93C166.324 110.983 166.591 111.04 166.931 111.1C167.351 111.18 167.688 111.26 167.941 111.34C168.194 111.42 168.411 111.557 168.591 111.75C168.771 111.943 168.861 112.21 168.861 112.55C168.861 113.01 168.668 113.377 168.281 113.65C167.901 113.917 167.371 114.05 166.691 114.05ZM172.944 113.68C172.81 113.8 172.644 113.893 172.444 113.96C172.25 114.02 172.047 114.05 171.834 114.05C171.34 114.05 170.96 113.917 170.694 113.65C170.427 113.383 170.294 113.007 170.294 112.52V109.34H169.354V108.74H170.294V107.59H171.004V108.74H172.604V109.34H171.004V112.48C171.004 112.793 171.08 113.033 171.234 113.2C171.394 113.36 171.62 113.44 171.914 113.44C172.06 113.44 172.2 113.417 172.334 113.37C172.474 113.323 172.594 113.257 172.694 113.17L172.944 113.68ZM174.916 109.77C175.083 109.417 175.329 109.15 175.656 108.97C175.989 108.79 176.399 108.7 176.886 108.7V109.39L176.716 109.38C176.163 109.38 175.729 109.55 175.416 109.89C175.103 110.23 174.946 110.707 174.946 111.32V114H174.236V108.74H174.916V109.77ZM182.816 108.74L180.186 114.63C179.973 115.123 179.726 115.473 179.446 115.68C179.166 115.887 178.83 115.99 178.436 115.99C178.183 115.99 177.946 115.95 177.726 115.87C177.506 115.79 177.316 115.67 177.156 115.51L177.486 114.98C177.753 115.247 178.073 115.38 178.446 115.38C178.686 115.38 178.89 115.313 179.056 115.18C179.23 115.047 179.39 114.82 179.536 114.5L179.766 113.99L177.416 108.74H178.156L180.136 113.21L182.116 108.74H182.816ZM183.544 114.05C183.398 114.05 183.271 113.997 183.164 113.89C183.064 113.783 183.014 113.653 183.014 113.5C183.014 113.347 183.064 113.22 183.164 113.12C183.271 113.013 183.398 112.96 183.544 112.96C183.691 112.96 183.818 113.013 183.924 113.12C184.031 113.22 184.084 113.347 184.084 113.5C184.084 113.653 184.031 113.783 183.924 113.89C183.818 113.997 183.691 114.05 183.544 114.05ZM188.361 107H189.101V113.36H193.021V114H188.361V107ZM196.171 114.05C195.665 114.05 195.208 113.937 194.801 113.71C194.395 113.477 194.075 113.157 193.841 112.75C193.608 112.343 193.491 111.883 193.491 111.37C193.491 110.857 193.608 110.397 193.841 109.99C194.075 109.583 194.395 109.267 194.801 109.04C195.208 108.813 195.665 108.7 196.171 108.7C196.678 108.7 197.135 108.813 197.541 109.04C197.948 109.267 198.265 109.583 198.491 109.99C198.725 110.397 198.841 110.857 198.841 111.37C198.841 111.883 198.725 112.343 198.491 112.75C198.265 113.157 197.948 113.477 197.541 113.71C197.135 113.937 196.678 114.05 196.171 114.05ZM196.171 113.42C196.545 113.42 196.878 113.337 197.171 113.17C197.471 112.997 197.705 112.753 197.871 112.44C198.038 112.127 198.121 111.77 198.121 111.37C198.121 110.97 198.038 110.613 197.871 110.3C197.705 109.987 197.471 109.747 197.171 109.58C196.878 109.407 196.545 109.32 196.171 109.32C195.798 109.32 195.461 109.407 195.161 109.58C194.868 109.747 194.635 109.987 194.461 110.3C194.295 110.613 194.211 110.97 194.211 111.37C194.211 111.77 194.295 112.127 194.461 112.44C194.635 112.753 194.868 112.997 195.161 113.17C195.461 113.337 195.798 113.42 196.171 113.42ZM200.971 109.77C201.137 109.417 201.384 109.15 201.711 108.97C202.044 108.79 202.454 108.7 202.941 108.7V109.39L202.771 109.38C202.217 109.38 201.784 109.55 201.471 109.89C201.157 110.23 201.001 110.707 201.001 111.32V114H200.291V108.74H200.971V109.77ZM208.758 111.59H204.358C204.398 112.137 204.608 112.58 204.988 112.92C205.368 113.253 205.848 113.42 206.428 113.42C206.754 113.42 207.054 113.363 207.328 113.25C207.601 113.13 207.838 112.957 208.038 112.73L208.438 113.19C208.204 113.47 207.911 113.683 207.558 113.83C207.211 113.977 206.828 114.05 206.408 114.05C205.868 114.05 205.388 113.937 204.968 113.71C204.554 113.477 204.231 113.157 203.998 112.75C203.764 112.343 203.648 111.883 203.648 111.37C203.648 110.857 203.758 110.397 203.978 109.99C204.204 109.583 204.511 109.267 204.898 109.04C205.291 108.813 205.731 108.7 206.218 108.7C206.704 108.7 207.141 108.813 207.528 109.04C207.914 109.267 208.218 109.583 208.438 109.99C208.658 110.39 208.768 110.85 208.768 111.37L208.758 111.59ZM206.218 109.31C205.711 109.31 205.284 109.473 204.938 109.8C204.598 110.12 204.404 110.54 204.358 111.06H208.088C208.041 110.54 207.844 110.12 207.498 109.8C207.158 109.473 206.731 109.31 206.218 109.31ZM216.773 108.7C217.433 108.7 217.949 108.89 218.323 109.27C218.703 109.65 218.893 110.21 218.893 110.95V114H218.183V111.02C218.183 110.473 218.049 110.057 217.783 109.77C217.523 109.483 217.153 109.34 216.673 109.34C216.126 109.34 215.696 109.51 215.383 109.85C215.069 110.183 214.913 110.647 214.913 111.24V114H214.203V111.02C214.203 110.473 214.069 110.057 213.803 109.77C213.543 109.483 213.169 109.34 212.683 109.34C212.143 109.34 211.713 109.51 211.393 109.85C211.079 110.183 210.923 110.647 210.923 111.24V114H210.213V108.74H210.893V109.7C211.079 109.38 211.339 109.133 211.673 108.96C212.006 108.787 212.389 108.7 212.823 108.7C213.263 108.7 213.643 108.793 213.963 108.98C214.289 109.167 214.533 109.443 214.693 109.81C214.886 109.463 215.163 109.193 215.523 109C215.889 108.8 216.306 108.7 216.773 108.7ZM17.14 123H17.88V130H17.14V123ZM22.7176 124.7C23.2109 124.7 23.6576 124.813 24.0576 125.04C24.4576 125.26 24.7709 125.573 24.9976 125.98C25.2242 126.387 25.3376 126.85 25.3376 127.37C25.3376 127.897 25.2242 128.363 24.9976 128.77C24.7709 129.177 24.4576 129.493 24.0576 129.72C23.6642 129.94 23.2176 130.05 22.7176 130.05C22.2909 130.05 21.9042 129.963 21.5576 129.79C21.2176 129.61 20.9376 129.35 20.7176 129.01V131.94H20.0076V124.74H20.6876V125.78C20.9009 125.433 21.1809 125.167 21.5276 124.98C21.8809 124.793 22.2776 124.7 22.7176 124.7ZM22.6676 129.42C23.0342 129.42 23.3676 129.337 23.6676 129.17C23.9676 128.997 24.2009 128.753 24.3676 128.44C24.5409 128.127 24.6276 127.77 24.6276 127.37C24.6276 126.97 24.5409 126.617 24.3676 126.31C24.2009 125.997 23.9676 125.753 23.6676 125.58C23.3676 125.407 23.0342 125.32 22.6676 125.32C22.2942 125.32 21.9576 125.407 21.6576 125.58C21.3642 125.753 21.1309 125.997 20.9576 126.31C20.7909 126.617 20.7076 126.97 20.7076 127.37C20.7076 127.77 20.7909 128.127 20.9576 128.44C21.1309 128.753 21.3642 128.997 21.6576 129.17C21.9576 129.337 22.2942 129.42 22.6676 129.42ZM28.1949 130.05C27.7683 130.05 27.3583 129.99 26.9649 129.87C26.5783 129.743 26.2749 129.587 26.0549 129.4L26.3749 128.84C26.5949 129.013 26.8716 129.157 27.2049 129.27C27.5383 129.377 27.8849 129.43 28.2449 129.43C28.7249 129.43 29.0783 129.357 29.3049 129.21C29.5383 129.057 29.6549 128.843 29.6549 128.57C29.6549 128.377 29.5916 128.227 29.4649 128.12C29.3383 128.007 29.1783 127.923 28.9849 127.87C28.7916 127.81 28.5349 127.753 28.2149 127.7C27.7883 127.62 27.4449 127.54 27.1849 127.46C26.9249 127.373 26.7016 127.23 26.5149 127.03C26.3349 126.83 26.2449 126.553 26.2449 126.2C26.2449 125.76 26.4283 125.4 26.7949 125.12C27.1616 124.84 27.6716 124.7 28.3249 124.7C28.6649 124.7 29.0049 124.747 29.3449 124.84C29.6849 124.927 29.9649 125.043 30.1849 125.19L29.8749 125.76C29.4416 125.46 28.9249 125.31 28.3249 125.31C27.8716 125.31 27.5283 125.39 27.2949 125.55C27.0683 125.71 26.9549 125.92 26.9549 126.18C26.9549 126.38 27.0183 126.54 27.1449 126.66C27.2783 126.78 27.4416 126.87 27.6349 126.93C27.8283 126.983 28.0949 127.04 28.4349 127.1C28.8549 127.18 29.1916 127.26 29.4449 127.34C29.6983 127.42 29.9149 127.557 30.0949 127.75C30.2749 127.943 30.3649 128.21 30.3649 128.55C30.3649 129.01 30.1716 129.377 29.7849 129.65C29.4049 129.917 28.8749 130.05 28.1949 130.05ZM36.4175 124.74V130H35.7375V129.04C35.5508 129.36 35.2942 129.61 34.9675 129.79C34.6408 129.963 34.2675 130.05 33.8475 130.05C33.1608 130.05 32.6175 129.86 32.2175 129.48C31.8242 129.093 31.6275 128.53 31.6275 127.79V124.74H32.3375V127.72C32.3375 128.273 32.4742 128.693 32.7475 128.98C33.0208 129.267 33.4108 129.41 33.9175 129.41C34.4708 129.41 34.9075 129.243 35.2275 128.91C35.5475 128.57 35.7075 128.1 35.7075 127.5V124.74H36.4175ZM44.966 124.7C45.626 124.7 46.1427 124.89 46.516 125.27C46.896 125.65 47.086 126.21 47.086 126.95V130H46.376V127.02C46.376 126.473 46.2427 126.057 45.976 125.77C45.716 125.483 45.346 125.34 44.866 125.34C44.3193 125.34 43.8893 125.51 43.576 125.85C43.2627 126.183 43.106 126.647 43.106 127.24V130H42.396V127.02C42.396 126.473 42.2627 126.057 41.996 125.77C41.736 125.483 41.3627 125.34 40.876 125.34C40.336 125.34 39.906 125.51 39.586 125.85C39.2727 126.183 39.116 126.647 39.116 127.24V130H38.406V124.74H39.086V125.7C39.2727 125.38 39.5327 125.133 39.866 124.96C40.1993 124.787 40.5827 124.7 41.016 124.7C41.456 124.7 41.836 124.793 42.156 124.98C42.4827 125.167 42.726 125.443 42.886 125.81C43.0793 125.463 43.356 125.193 43.716 125C44.0827 124.8 44.4993 124.7 44.966 124.7ZM54.3087 124.7C54.9687 124.7 55.492 124.893 55.8787 125.28C56.272 125.66 56.4687 126.217 56.4687 126.95V130H55.7587V127.02C55.7587 126.473 55.622 126.057 55.3487 125.77C55.0753 125.483 54.6853 125.34 54.1787 125.34C53.612 125.34 53.162 125.51 52.8287 125.85C52.502 126.183 52.3387 126.647 52.3387 127.24V130H51.6287V122.58H52.3387V125.66C52.532 125.353 52.7987 125.117 53.1387 124.95C53.4787 124.783 53.8687 124.7 54.3087 124.7ZM60.2363 124.7C60.9229 124.7 61.4496 124.873 61.8163 125.22C62.1829 125.56 62.3663 126.067 62.3663 126.74V130H61.6863V129.18C61.5263 129.453 61.2896 129.667 60.9763 129.82C60.6696 129.973 60.3029 130.05 59.8763 130.05C59.2896 130.05 58.8229 129.91 58.4763 129.63C58.1296 129.35 57.9563 128.98 57.9563 128.52C57.9563 128.073 58.1163 127.713 58.4363 127.44C58.7629 127.167 59.2796 127.03 59.9863 127.03H61.6563V126.71C61.6563 126.257 61.5296 125.913 61.2763 125.68C61.0229 125.44 60.6529 125.32 60.1663 125.32C59.8329 125.32 59.5129 125.377 59.2063 125.49C58.8996 125.597 58.6363 125.747 58.4163 125.94L58.0963 125.41C58.3629 125.183 58.6829 125.01 59.0563 124.89C59.4296 124.763 59.8229 124.7 60.2363 124.7ZM59.9863 129.49C60.3863 129.49 60.7296 129.4 61.0163 129.22C61.3029 129.033 61.5163 128.767 61.6563 128.42V127.56H60.0063C59.1063 127.56 58.6562 127.873 58.6562 128.5C58.6562 128.807 58.7729 129.05 59.0063 129.23C59.2396 129.403 59.5663 129.49 59.9863 129.49ZM65.7047 130.05C65.278 130.05 64.868 129.99 64.4747 129.87C64.088 129.743 63.7847 129.587 63.5647 129.4L63.8847 128.84C64.1047 129.013 64.3814 129.157 64.7147 129.27C65.048 129.377 65.3947 129.43 65.7547 129.43C66.2347 129.43 66.588 129.357 66.8147 129.21C67.048 129.057 67.1647 128.843 67.1647 128.57C67.1647 128.377 67.1014 128.227 66.9747 128.12C66.848 128.007 66.688 127.923 66.4947 127.87C66.3014 127.81 66.0447 127.753 65.7247 127.7C65.298 127.62 64.9547 127.54 64.6947 127.46C64.4347 127.373 64.2114 127.23 64.0247 127.03C63.8447 126.83 63.7547 126.553 63.7547 126.2C63.7547 125.76 63.938 125.4 64.3047 125.12C64.6714 124.84 65.1814 124.7 65.8347 124.7C66.1747 124.7 66.5147 124.747 66.8547 124.84C67.1947 124.927 67.4747 125.043 67.6947 125.19L67.3847 125.76C66.9514 125.46 66.4347 125.31 65.8347 125.31C65.3814 125.31 65.038 125.39 64.8047 125.55C64.578 125.71 64.4647 125.92 64.4647 126.18C64.4647 126.38 64.528 126.54 64.6547 126.66C64.788 126.78 64.9514 126.87 65.1447 126.93C65.338 126.983 65.6047 127.04 65.9447 127.1C66.3647 127.18 66.7014 127.26 66.9547 127.34C67.208 127.42 67.4247 127.557 67.6047 127.75C67.7847 127.943 67.8747 128.21 67.8747 128.55C67.8747 129.01 67.6814 129.377 67.2947 129.65C66.9147 129.917 66.3847 130.05 65.7047 130.05ZM74.5145 124.7C75.0078 124.7 75.4545 124.813 75.8545 125.04C76.2545 125.26 76.5678 125.573 76.7945 125.98C77.0211 126.387 77.1345 126.85 77.1345 127.37C77.1345 127.89 77.0211 128.353 76.7945 128.76C76.5678 129.167 76.2545 129.483 75.8545 129.71C75.4545 129.937 75.0078 130.05 74.5145 130.05C74.0745 130.05 73.6778 129.957 73.3245 129.77C72.9778 129.583 72.6978 129.313 72.4845 128.96V130H71.8045V122.58H72.5145V125.74C72.7345 125.4 73.0145 125.143 73.3545 124.97C73.7011 124.79 74.0878 124.7 74.5145 124.7ZM74.4645 129.42C74.8311 129.42 75.1645 129.337 75.4645 129.17C75.7645 128.997 75.9978 128.753 76.1645 128.44C76.3378 128.127 76.4245 127.77 76.4245 127.37C76.4245 126.97 76.3378 126.613 76.1645 126.3C75.9978 125.987 75.7645 125.747 75.4645 125.58C75.1645 125.407 74.8311 125.32 74.4645 125.32C74.0911 125.32 73.7545 125.407 73.4545 125.58C73.1611 125.747 72.9278 125.987 72.7545 126.3C72.5878 126.613 72.5045 126.97 72.5045 127.37C72.5045 127.77 72.5878 128.127 72.7545 128.44C72.9278 128.753 73.1611 128.997 73.4545 129.17C73.7545 129.337 74.0911 129.42 74.4645 129.42ZM83.1618 127.59H78.7618C78.8018 128.137 79.0118 128.58 79.3918 128.92C79.7718 129.253 80.2518 129.42 80.8318 129.42C81.1585 129.42 81.4585 129.363 81.7318 129.25C82.0051 129.13 82.2418 128.957 82.4418 128.73L82.8418 129.19C82.6085 129.47 82.3151 129.683 81.9618 129.83C81.6151 129.977 81.2318 130.05 80.8118 130.05C80.2718 130.05 79.7918 129.937 79.3718 129.71C78.9585 129.477 78.6351 129.157 78.4018 128.75C78.1685 128.343 78.0518 127.883 78.0518 127.37C78.0518 126.857 78.1618 126.397 78.3818 125.99C78.6085 125.583 78.9151 125.267 79.3018 125.04C79.6951 124.813 80.1351 124.7 80.6218 124.7C81.1085 124.7 81.5451 124.813 81.9318 125.04C82.3185 125.267 82.6218 125.583 82.8418 125.99C83.0618 126.39 83.1718 126.85 83.1718 127.37L83.1618 127.59ZM80.6218 125.31C80.1151 125.31 79.6885 125.473 79.3418 125.8C79.0018 126.12 78.8085 126.54 78.7618 127.06H82.4918C82.4451 126.54 82.2485 126.12 81.9018 125.8C81.5618 125.473 81.1351 125.31 80.6218 125.31ZM89.197 127.59H84.797C84.837 128.137 85.047 128.58 85.427 128.92C85.807 129.253 86.287 129.42 86.867 129.42C87.1936 129.42 87.4936 129.363 87.767 129.25C88.0403 129.13 88.277 128.957 88.477 128.73L88.877 129.19C88.6436 129.47 88.3503 129.683 87.997 129.83C87.6503 129.977 87.267 130.05 86.847 130.05C86.307 130.05 85.827 129.937 85.407 129.71C84.9936 129.477 84.6703 129.157 84.437 128.75C84.2036 128.343 84.087 127.883 84.087 127.37C84.087 126.857 84.197 126.397 84.417 125.99C84.6436 125.583 84.9503 125.267 85.337 125.04C85.7303 124.813 86.1703 124.7 86.657 124.7C87.1436 124.7 87.5803 124.813 87.967 125.04C88.3536 125.267 88.657 125.583 88.877 125.99C89.097 126.39 89.207 126.85 89.207 127.37L89.197 127.59ZM86.657 125.31C86.1503 125.31 85.7236 125.473 85.377 125.8C85.037 126.12 84.8436 126.54 84.797 127.06H88.527C88.4803 126.54 88.2836 126.12 87.937 125.8C87.597 125.473 87.1703 125.31 86.657 125.31ZM93.3321 124.7C93.9921 124.7 94.5154 124.893 94.9021 125.28C95.2954 125.66 95.4921 126.217 95.4921 126.95V130H94.7821V127.02C94.7821 126.473 94.6454 126.057 94.3721 125.77C94.0988 125.483 93.7088 125.34 93.2021 125.34C92.6354 125.34 92.1854 125.51 91.8521 125.85C91.5254 126.183 91.3621 126.647 91.3621 127.24V130H90.6521V124.74H91.3321V125.71C91.5254 125.39 91.7921 125.143 92.1321 124.97C92.4788 124.79 92.8788 124.7 93.3321 124.7ZM102.807 129.68C102.674 129.8 102.507 129.893 102.307 129.96C102.114 130.02 101.91 130.05 101.697 130.05C101.204 130.05 100.824 129.917 100.557 129.65C100.29 129.383 100.157 129.007 100.157 128.52V125.34H99.2169V124.74H100.157V123.59H100.867V124.74H102.467V125.34H100.867V128.48C100.867 128.793 100.944 129.033 101.097 129.2C101.257 129.36 101.484 129.44 101.777 129.44C101.924 129.44 102.064 129.417 102.197 129.37C102.337 129.323 102.457 129.257 102.557 129.17L102.807 129.68ZM106.779 124.7C107.439 124.7 107.963 124.893 108.349 125.28C108.743 125.66 108.939 126.217 108.939 126.95V130H108.229V127.02C108.229 126.473 108.093 126.057 107.819 125.77C107.546 125.483 107.156 125.34 106.649 125.34C106.083 125.34 105.633 125.51 105.299 125.85C104.973 126.183 104.809 126.647 104.809 127.24V130H104.099V122.58H104.809V125.66C105.003 125.353 105.269 125.117 105.609 124.95C105.949 124.783 106.339 124.7 106.779 124.7ZM115.466 127.59H111.066C111.106 128.137 111.316 128.58 111.696 128.92C112.076 129.253 112.556 129.42 113.136 129.42C113.463 129.42 113.763 129.363 114.036 129.25C114.31 129.13 114.546 128.957 114.746 128.73L115.146 129.19C114.913 129.47 114.62 129.683 114.266 129.83C113.92 129.977 113.536 130.05 113.116 130.05C112.576 130.05 112.096 129.937 111.676 129.71C111.263 129.477 110.94 129.157 110.706 128.75C110.473 128.343 110.356 127.883 110.356 127.37C110.356 126.857 110.466 126.397 110.686 125.99C110.913 125.583 111.22 125.267 111.606 125.04C112 124.813 112.44 124.7 112.926 124.7C113.413 124.7 113.85 124.813 114.236 125.04C114.623 125.267 114.926 125.583 115.146 125.99C115.366 126.39 115.476 126.85 115.476 127.37L115.466 127.59ZM112.926 125.31C112.42 125.31 111.993 125.473 111.646 125.8C111.306 126.12 111.113 126.54 111.066 127.06H114.796C114.75 126.54 114.553 126.12 114.206 125.8C113.866 125.473 113.44 125.31 112.926 125.31ZM119.539 124.74H120.249V130H119.539V124.74ZM119.899 123.59C119.752 123.59 119.629 123.54 119.529 123.44C119.429 123.34 119.379 123.22 119.379 123.08C119.379 122.947 119.429 122.83 119.529 122.73C119.629 122.63 119.752 122.58 119.899 122.58C120.045 122.58 120.169 122.63 120.269 122.73C120.369 122.823 120.419 122.937 120.419 123.07C120.419 123.217 120.369 123.34 120.269 123.44C120.169 123.54 120.045 123.59 119.899 123.59ZM124.904 124.7C125.564 124.7 126.088 124.893 126.474 125.28C126.868 125.66 127.064 126.217 127.064 126.95V130H126.354V127.02C126.354 126.473 126.218 126.057 125.944 125.77C125.671 125.483 125.281 125.34 124.774 125.34C124.208 125.34 123.758 125.51 123.424 125.85C123.098 126.183 122.934 126.647 122.934 127.24V130H122.224V124.74H122.904V125.71C123.098 125.39 123.364 125.143 123.704 124.97C124.051 124.79 124.451 124.7 124.904 124.7ZM133.811 122.58V130H133.131V128.96C132.918 129.313 132.635 129.583 132.281 129.77C131.935 129.957 131.541 130.05 131.101 130.05C130.608 130.05 130.161 129.937 129.761 129.71C129.361 129.483 129.048 129.167 128.821 128.76C128.595 128.353 128.481 127.89 128.481 127.37C128.481 126.85 128.595 126.387 128.821 125.98C129.048 125.573 129.361 125.26 129.761 125.04C130.161 124.813 130.608 124.7 131.101 124.7C131.528 124.7 131.911 124.79 132.251 124.97C132.598 125.143 132.881 125.4 133.101 125.74V122.58H133.811ZM131.161 129.42C131.528 129.42 131.858 129.337 132.151 129.17C132.451 128.997 132.685 128.753 132.851 128.44C133.025 128.127 133.111 127.77 133.111 127.37C133.111 126.97 133.025 126.613 132.851 126.3C132.685 125.987 132.451 125.747 132.151 125.58C131.858 125.407 131.528 125.32 131.161 125.32C130.788 125.32 130.451 125.407 130.151 125.58C129.858 125.747 129.625 125.987 129.451 126.3C129.285 126.613 129.201 126.97 129.201 127.37C129.201 127.77 129.285 128.127 129.451 128.44C129.625 128.753 129.858 128.997 130.151 129.17C130.451 129.337 130.788 129.42 131.161 129.42ZM140.529 124.74V130H139.849V129.04C139.662 129.36 139.405 129.61 139.079 129.79C138.752 129.963 138.379 130.05 137.959 130.05C137.272 130.05 136.729 129.86 136.329 129.48C135.935 129.093 135.739 128.53 135.739 127.79V124.74H136.449V127.72C136.449 128.273 136.585 128.693 136.859 128.98C137.132 129.267 137.522 129.41 138.029 129.41C138.582 129.41 139.019 129.243 139.339 128.91C139.659 128.57 139.819 128.1 139.819 127.5V124.74H140.529ZM143.927 130.05C143.501 130.05 143.091 129.99 142.697 129.87C142.311 129.743 142.007 129.587 141.787 129.4L142.107 128.84C142.327 129.013 142.604 129.157 142.937 129.27C143.271 129.377 143.617 129.43 143.977 129.43C144.457 129.43 144.811 129.357 145.037 129.21C145.271 129.057 145.387 128.843 145.387 128.57C145.387 128.377 145.324 128.227 145.197 128.12C145.071 128.007 144.911 127.923 144.717 127.87C144.524 127.81 144.267 127.753 143.947 127.7C143.521 127.62 143.177 127.54 142.917 127.46C142.657 127.373 142.434 127.23 142.247 127.03C142.067 126.83 141.977 126.553 141.977 126.2C141.977 125.76 142.161 125.4 142.527 125.12C142.894 124.84 143.404 124.7 144.057 124.7C144.397 124.7 144.737 124.747 145.077 124.84C145.417 124.927 145.697 125.043 145.917 125.19L145.607 125.76C145.174 125.46 144.657 125.31 144.057 125.31C143.604 125.31 143.261 125.39 143.027 125.55C142.801 125.71 142.687 125.92 142.687 126.18C142.687 126.38 142.751 126.54 142.877 126.66C143.011 126.78 143.174 126.87 143.367 126.93C143.561 126.983 143.827 127.04 144.167 127.1C144.587 127.18 144.924 127.26 145.177 127.34C145.431 127.42 145.647 127.557 145.827 127.75C146.007 127.943 146.097 128.21 146.097 128.55C146.097 129.01 145.904 129.377 145.517 129.65C145.137 129.917 144.607 130.05 143.927 130.05ZM150.18 129.68C150.047 129.8 149.88 129.893 149.68 129.96C149.487 130.02 149.283 130.05 149.07 130.05C148.577 130.05 148.197 129.917 147.93 129.65C147.663 129.383 147.53 129.007 147.53 128.52V125.34H146.59V124.74H147.53V123.59H148.24V124.74H149.84V125.34H148.24V128.48C148.24 128.793 148.317 129.033 148.47 129.2C148.63 129.36 148.857 129.44 149.15 129.44C149.297 129.44 149.437 129.417 149.57 129.37C149.71 129.323 149.83 129.257 149.93 129.17L150.18 129.68ZM152.152 125.77C152.319 125.417 152.566 125.15 152.892 124.97C153.226 124.79 153.636 124.7 154.122 124.7V125.39L153.952 125.38C153.399 125.38 152.966 125.55 152.652 125.89C152.339 126.23 152.182 126.707 152.182 127.32V130H151.472V124.74H152.152V125.77ZM160.053 124.74L157.423 130.63C157.209 131.123 156.963 131.473 156.683 131.68C156.403 131.887 156.066 131.99 155.673 131.99C155.419 131.99 155.183 131.95 154.963 131.87C154.743 131.79 154.553 131.67 154.393 131.51L154.723 130.98C154.989 131.247 155.309 131.38 155.683 131.38C155.923 131.38 156.126 131.313 156.293 131.18C156.466 131.047 156.626 130.82 156.773 130.5L157.003 129.99L154.653 124.74H155.393L157.373 129.21L159.353 124.74H160.053ZM160.753 123H161.382L161.333 125.64H160.803L160.753 123ZM164.484 130.05C164.057 130.05 163.647 129.99 163.254 129.87C162.867 129.743 162.564 129.587 162.344 129.4L162.664 128.84C162.884 129.013 163.161 129.157 163.494 129.27C163.827 129.377 164.174 129.43 164.534 129.43C165.014 129.43 165.367 129.357 165.594 129.21C165.827 129.057 165.944 128.843 165.944 128.57C165.944 128.377 165.881 128.227 165.754 128.12C165.627 128.007 165.467 127.923 165.274 127.87C165.081 127.81 164.824 127.753 164.504 127.7C164.077 127.62 163.734 127.54 163.474 127.46C163.214 127.373 162.991 127.23 162.804 127.03C162.624 126.83 162.534 126.553 162.534 126.2C162.534 125.76 162.717 125.4 163.084 125.12C163.451 124.84 163.961 124.7 164.614 124.7C164.954 124.7 165.294 124.747 165.634 124.84C165.974 124.927 166.254 125.043 166.474 125.19L166.164 125.76C165.731 125.46 165.214 125.31 164.614 125.31C164.161 125.31 163.817 125.39 163.584 125.55C163.357 125.71 163.244 125.92 163.244 126.18C163.244 126.38 163.307 126.54 163.434 126.66C163.567 126.78 163.731 126.87 163.924 126.93C164.117 126.983 164.384 127.04 164.724 127.1C165.144 127.18 165.481 127.26 165.734 127.34C165.987 127.42 166.204 127.557 166.384 127.75C166.564 127.943 166.654 128.21 166.654 128.55C166.654 129.01 166.461 129.377 166.074 129.65C165.694 129.917 165.164 130.05 164.484 130.05ZM171.994 130.05C171.567 130.05 171.157 129.99 170.764 129.87C170.377 129.743 170.074 129.587 169.854 129.4L170.174 128.84C170.394 129.013 170.67 129.157 171.004 129.27C171.337 129.377 171.684 129.43 172.044 129.43C172.524 129.43 172.877 129.357 173.104 129.21C173.337 129.057 173.454 128.843 173.454 128.57C173.454 128.377 173.39 128.227 173.264 128.12C173.137 128.007 172.977 127.923 172.784 127.87C172.59 127.81 172.334 127.753 172.014 127.7C171.587 127.62 171.244 127.54 170.984 127.46C170.724 127.373 170.5 127.23 170.314 127.03C170.134 126.83 170.044 126.553 170.044 126.2C170.044 125.76 170.227 125.4 170.594 125.12C170.96 124.84 171.47 124.7 172.124 124.7C172.464 124.7 172.804 124.747 173.144 124.84C173.484 124.927 173.764 125.043 173.984 125.19L173.674 125.76C173.24 125.46 172.724 125.31 172.124 125.31C171.67 125.31 171.327 125.39 171.094 125.55C170.867 125.71 170.754 125.92 170.754 126.18C170.754 126.38 170.817 126.54 170.944 126.66C171.077 126.78 171.24 126.87 171.434 126.93C171.627 126.983 171.894 127.04 172.234 127.1C172.654 127.18 172.99 127.26 173.244 127.34C173.497 127.42 173.714 127.557 173.894 127.75C174.074 127.943 174.164 128.21 174.164 128.55C174.164 129.01 173.97 129.377 173.584 129.65C173.204 129.917 172.674 130.05 171.994 130.05ZM178.246 129.68C178.113 129.8 177.946 129.893 177.746 129.96C177.553 130.02 177.35 130.05 177.136 130.05C176.643 130.05 176.263 129.917 175.996 129.65C175.73 129.383 175.596 129.007 175.596 128.52V125.34H174.656V124.74H175.596V123.59H176.306V124.74H177.906V125.34H176.306V128.48C176.306 128.793 176.383 129.033 176.536 129.2C176.696 129.36 176.923 129.44 177.216 129.44C177.363 129.44 177.503 129.417 177.636 129.37C177.776 129.323 177.896 129.257 177.996 129.17L178.246 129.68ZM181.379 124.7C182.065 124.7 182.592 124.873 182.959 125.22C183.325 125.56 183.509 126.067 183.509 126.74V130H182.829V129.18C182.669 129.453 182.432 129.667 182.119 129.82C181.812 129.973 181.445 130.05 181.019 130.05C180.432 130.05 179.965 129.91 179.619 129.63C179.272 129.35 179.099 128.98 179.099 128.52C179.099 128.073 179.259 127.713 179.579 127.44C179.905 127.167 180.422 127.03 181.129 127.03H182.799V126.71C182.799 126.257 182.672 125.913 182.419 125.68C182.165 125.44 181.795 125.32 181.309 125.32C180.975 125.32 180.655 125.377 180.349 125.49C180.042 125.597 179.779 125.747 179.559 125.94L179.239 125.41C179.505 125.183 179.825 125.01 180.199 124.89C180.572 124.763 180.965 124.7 181.379 124.7ZM181.129 129.49C181.529 129.49 181.872 129.4 182.159 129.22C182.445 129.033 182.659 128.767 182.799 128.42V127.56H181.149C180.249 127.56 179.799 127.873 179.799 128.5C179.799 128.807 179.915 129.05 180.149 129.23C180.382 129.403 180.709 129.49 181.129 129.49ZM188.117 124.7C188.777 124.7 189.301 124.893 189.687 125.28C190.081 125.66 190.277 126.217 190.277 126.95V130H189.567V127.02C189.567 126.473 189.431 126.057 189.157 125.77C188.884 125.483 188.494 125.34 187.987 125.34C187.421 125.34 186.971 125.51 186.637 125.85C186.311 126.183 186.147 126.647 186.147 127.24V130H185.437V124.74H186.117V125.71C186.311 125.39 186.577 125.143 186.917 124.97C187.264 124.79 187.664 124.7 188.117 124.7ZM197.024 122.58V130H196.344V128.96C196.131 129.313 195.848 129.583 195.494 129.77C195.148 129.957 194.754 130.05 194.314 130.05C193.821 130.05 193.374 129.937 192.974 129.71C192.574 129.483 192.261 129.167 192.034 128.76C191.808 128.353 191.694 127.89 191.694 127.37C191.694 126.85 191.808 126.387 192.034 125.98C192.261 125.573 192.574 125.26 192.974 125.04C193.374 124.813 193.821 124.7 194.314 124.7C194.741 124.7 195.124 124.79 195.464 124.97C195.811 125.143 196.094 125.4 196.314 125.74V122.58H197.024ZM194.374 129.42C194.741 129.42 195.071 129.337 195.364 129.17C195.664 128.997 195.898 128.753 196.064 128.44C196.238 128.127 196.324 127.77 196.324 127.37C196.324 126.97 196.238 126.613 196.064 126.3C195.898 125.987 195.664 125.747 195.364 125.58C195.071 125.407 194.741 125.32 194.374 125.32C194.001 125.32 193.664 125.407 193.364 125.58C193.071 125.747 192.838 125.987 192.664 126.3C192.498 126.613 192.414 126.97 192.414 127.37C192.414 127.77 192.498 128.127 192.664 128.44C192.838 128.753 193.071 128.997 193.364 129.17C193.664 129.337 194.001 129.42 194.374 129.42ZM200.842 124.7C201.528 124.7 202.055 124.873 202.422 125.22C202.788 125.56 202.972 126.067 202.972 126.74V130H202.292V129.18C202.132 129.453 201.895 129.667 201.582 129.82C201.275 129.973 200.908 130.05 200.482 130.05C199.895 130.05 199.428 129.91 199.082 129.63C198.735 129.35 198.562 128.98 198.562 128.52C198.562 128.073 198.722 127.713 199.042 127.44C199.368 127.167 199.885 127.03 200.592 127.03H202.262V126.71C202.262 126.257 202.135 125.913 201.882 125.68C201.628 125.44 201.258 125.32 200.772 125.32C200.438 125.32 200.118 125.377 199.812 125.49C199.505 125.597 199.242 125.747 199.022 125.94L198.702 125.41C198.968 125.183 199.288 125.01 199.662 124.89C200.035 124.763 200.428 124.7 200.842 124.7ZM200.592 129.49C200.992 129.49 201.335 129.4 201.622 129.22C201.908 129.033 202.122 128.767 202.262 128.42V127.56H200.612C199.712 127.56 199.262 127.873 199.262 128.5C199.262 128.807 199.378 129.05 199.612 129.23C199.845 129.403 200.172 129.49 200.592 129.49ZM205.58 125.77C205.747 125.417 205.993 125.15 206.32 124.97C206.653 124.79 207.063 124.7 207.55 124.7V125.39L207.38 125.38C206.827 125.38 206.393 125.55 206.08 125.89C205.767 126.23 205.61 126.707 205.61 127.32V130H204.9V124.74H205.58V125.77ZM213.587 122.58V130H212.907V128.96C212.694 129.313 212.41 129.583 212.057 129.77C211.71 129.957 211.317 130.05 210.877 130.05C210.384 130.05 209.937 129.937 209.537 129.71C209.137 129.483 208.824 129.167 208.597 128.76C208.37 128.353 208.257 127.89 208.257 127.37C208.257 126.85 208.37 126.387 208.597 125.98C208.824 125.573 209.137 125.26 209.537 125.04C209.937 124.813 210.384 124.7 210.877 124.7C211.304 124.7 211.687 124.79 212.027 124.97C212.374 125.143 212.657 125.4 212.877 125.74V122.58H213.587ZM210.937 129.42C211.304 129.42 211.634 129.337 211.927 129.17C212.227 128.997 212.46 128.753 212.627 128.44C212.8 128.127 212.887 127.77 212.887 127.37C212.887 126.97 212.8 126.613 212.627 126.3C212.46 125.987 212.227 125.747 211.927 125.58C211.634 125.407 211.304 125.32 210.937 125.32C210.564 125.32 210.227 125.407 209.927 125.58C209.634 125.747 209.4 125.987 209.227 126.3C209.06 126.613 208.977 126.97 208.977 127.37C208.977 127.77 209.06 128.127 209.227 128.44C209.4 128.753 209.634 128.997 209.927 129.17C210.227 129.337 210.564 129.42 210.937 129.42Z" fill="#2C1500"/>
<path d="M83.92 30.88V33.84H89.104V35.92H83.92V40H81.328V28.8H89.792V30.88H83.92ZM94.6084 31.264C95.9417 31.264 96.9657 31.584 97.6804 32.224C98.395 32.8533 98.7524 33.808 98.7524 35.088V40H96.4164V38.928C95.947 39.728 95.0724 40.128 93.7924 40.128C93.131 40.128 92.555 40.016 92.0644 39.792C91.5844 39.568 91.2164 39.2587 90.9604 38.864C90.7044 38.4693 90.5764 38.0213 90.5764 37.52C90.5764 36.72 90.875 36.0907 91.4724 35.632C92.0804 35.1733 93.0137 34.944 94.2724 34.944H96.2564C96.2564 34.4 96.091 33.984 95.7604 33.696C95.4297 33.3973 94.9337 33.248 94.2724 33.248C93.8137 33.248 93.3604 33.3227 92.9124 33.472C92.475 33.6107 92.1017 33.8027 91.7924 34.048L90.8964 32.304C91.3657 31.9733 91.9257 31.7173 92.5764 31.536C93.2377 31.3547 93.915 31.264 94.6084 31.264ZM94.4164 38.448C94.843 38.448 95.2217 38.352 95.5524 38.16C95.883 37.9573 96.1177 37.664 96.2564 37.28V36.4H94.5444C93.5204 36.4 93.0084 36.736 93.0084 37.408C93.0084 37.728 93.131 37.984 93.3764 38.176C93.6324 38.3573 93.979 38.448 94.4164 38.448ZM103.907 40.128C103.193 40.128 102.494 40.0427 101.811 39.872C101.129 39.6907 100.585 39.4667 100.179 39.2L101.011 37.408C101.395 37.6533 101.859 37.856 102.403 38.016C102.947 38.1653 103.481 38.24 104.003 38.24C105.059 38.24 105.587 37.9787 105.587 37.456C105.587 37.2107 105.443 37.0347 105.155 36.928C104.867 36.8213 104.425 36.7307 103.827 36.656C103.123 36.5493 102.542 36.4267 102.083 36.288C101.625 36.1493 101.225 35.904 100.883 35.552C100.553 35.2 100.387 34.6987 100.387 34.048C100.387 33.504 100.542 33.024 100.851 32.608C101.171 32.1813 101.63 31.8507 102.227 31.616C102.835 31.3813 103.55 31.264 104.371 31.264C104.979 31.264 105.582 31.3333 106.179 31.472C106.787 31.6 107.289 31.7813 107.683 32.016L106.851 33.792C106.094 33.3653 105.267 33.152 104.371 33.152C103.838 33.152 103.438 33.2267 103.171 33.376C102.905 33.5253 102.771 33.7173 102.771 33.952C102.771 34.2187 102.915 34.4053 103.203 34.512C103.491 34.6187 103.95 34.72 104.579 34.816C105.283 34.9333 105.859 35.0613 106.307 35.2C106.755 35.328 107.145 35.568 107.475 35.92C107.806 36.272 107.971 36.7627 107.971 37.392C107.971 37.9253 107.811 38.4 107.491 38.816C107.171 39.232 106.702 39.5573 106.083 39.792C105.475 40.016 104.75 40.128 103.907 40.128ZM115.063 39.584C114.818 39.7653 114.514 39.904 114.151 40C113.799 40.0853 113.426 40.128 113.031 40.128C112.007 40.128 111.213 39.8667 110.647 39.344C110.093 38.8213 109.815 38.0533 109.815 37.04V33.504H108.487V31.584H109.815V29.488H112.311V31.584H114.455V33.504H112.311V37.008C112.311 37.3707 112.402 37.6533 112.583 37.856C112.775 38.048 113.042 38.144 113.383 38.144C113.778 38.144 114.114 38.0373 114.391 37.824L115.063 39.584ZM81.328 52.8H86.416C87.632 52.8 88.704 53.0347 89.632 53.504C90.5707 53.9627 91.296 54.6133 91.808 55.456C92.3307 56.2987 92.592 57.28 92.592 58.4C92.592 59.52 92.3307 60.5013 91.808 61.344C91.296 62.1867 90.5707 62.8427 89.632 63.312C88.704 63.7707 87.632 64 86.416 64H81.328V52.8ZM86.288 61.872C87.408 61.872 88.2987 61.5627 88.96 60.944C89.632 60.3147 89.968 59.4667 89.968 58.4C89.968 57.3333 89.632 56.4907 88.96 55.872C88.2987 55.2427 87.408 54.928 86.288 54.928H83.92V61.872H86.288ZM102.803 59.728C102.803 59.76 102.787 59.984 102.755 60.4H96.2428C96.3601 60.9333 96.6374 61.3547 97.0748 61.664C97.5121 61.9733 98.0561 62.128 98.7068 62.128C99.1548 62.128 99.5494 62.064 99.8908 61.936C100.243 61.7973 100.568 61.584 100.867 61.296L102.195 62.736C101.384 63.664 100.2 64.128 98.6428 64.128C97.6721 64.128 96.8134 63.9413 96.0668 63.568C95.3201 63.184 94.7441 62.656 94.3388 61.984C93.9334 61.312 93.7308 60.5493 93.7308 59.696C93.7308 58.8533 93.9281 58.096 94.3228 57.424C94.7281 56.7413 95.2774 56.2133 95.9708 55.84C96.6748 55.456 97.4588 55.264 98.3228 55.264C99.1654 55.264 99.9281 55.4453 100.611 55.808C101.293 56.1707 101.827 56.6933 102.211 57.376C102.605 58.048 102.803 58.832 102.803 59.728ZM98.3388 57.152C97.7734 57.152 97.2988 57.312 96.9148 57.632C96.5308 57.952 96.2961 58.3893 96.2108 58.944H100.451C100.365 58.4 100.131 57.968 99.7468 57.648C99.3628 57.3173 98.8934 57.152 98.3388 57.152ZM104.465 52.128H106.961V64H104.465V52.128ZM109.277 55.392H111.773V64H109.277V55.392ZM110.525 54.192C110.066 54.192 109.693 54.0587 109.405 53.792C109.117 53.5253 108.973 53.1947 108.973 52.8C108.973 52.4053 109.117 52.0747 109.405 51.808C109.693 51.5413 110.066 51.408 110.525 51.408C110.984 51.408 111.357 51.536 111.645 51.792C111.933 52.048 112.077 52.368 112.077 52.752C112.077 53.168 111.933 53.5147 111.645 53.792C111.357 54.0587 110.984 54.192 110.525 54.192ZM122.634 55.392L119.002 64H116.426L112.809 55.392H115.386L117.77 61.248L120.234 55.392H122.634ZM131.85 59.728C131.85 59.76 131.834 59.984 131.802 60.4H125.29C125.407 60.9333 125.684 61.3547 126.122 61.664C126.559 61.9733 127.103 62.128 127.754 62.128C128.202 62.128 128.596 62.064 128.938 61.936C129.29 61.7973 129.615 61.584 129.914 61.296L131.242 62.736C130.431 63.664 129.247 64.128 127.69 64.128C126.719 64.128 125.86 63.9413 125.114 63.568C124.367 63.184 123.791 62.656 123.386 61.984C122.98 61.312 122.778 60.5493 122.778 59.696C122.778 58.8533 122.975 58.096 123.37 57.424C123.775 56.7413 124.324 56.2133 125.018 55.84C125.722 55.456 126.506 55.264 127.37 55.264C128.212 55.264 128.975 55.4453 129.658 55.808C130.34 56.1707 130.874 56.6933 131.258 57.376C131.652 58.048 131.85 58.832 131.85 59.728ZM127.386 57.152C126.82 57.152 126.346 57.312 125.962 57.632C125.578 57.952 125.343 58.3893 125.258 58.944H129.498C129.412 58.4 129.178 57.968 128.794 57.648C128.41 57.3173 127.94 57.152 127.386 57.152ZM135.895 56.528C136.194 56.112 136.594 55.7973 137.095 55.584C137.607 55.3707 138.194 55.264 138.855 55.264V57.568C138.578 57.5467 138.391 57.536 138.295 57.536C137.581 57.536 137.021 57.7387 136.615 58.144C136.21 58.5387 136.007 59.136 136.007 59.936V64H133.511V55.392H135.895V56.528ZM149.18 55.392L145.292 64.528C144.898 65.52 144.407 66.2187 143.82 66.624C143.244 67.0293 142.546 67.232 141.724 67.232C141.276 67.232 140.834 67.1627 140.396 67.024C139.959 66.8853 139.602 66.6933 139.324 66.448L140.236 64.672C140.428 64.8427 140.647 64.976 140.892 65.072C141.148 65.168 141.399 65.216 141.644 65.216C141.986 65.216 142.263 65.1307 142.476 64.96C142.69 64.8 142.882 64.528 143.052 64.144L143.084 64.064L139.356 55.392H141.932L144.348 61.232L146.78 55.392H149.18Z" fill="#156963"/>
<g clip-path="url(#clip0_0_14)">
<path d="M29.0001 60H25.0001C24.4481 60 24.0001 59.552 24.0001 59C24.0001 58.448 24.4481 58 25.0001 58H29.0001C29.5521 58 30.0001 58.448 30.0001 59C30.0001 59.552 29.5521 60 29.0001 60Z" fill="#156963"/>
<path d="M61.5 60H59C58.448 60 58 59.552 58 59C58 58.448 58.448 58 59 58H60.67L62.018 50.816C62 47.14 58.86 44 55 44H48.434L45.252 58H51C51.552 58 52 58.448 52 59C52 59.552 51.552 60 51 60H44C43.696 60 43.408 59.862 43.218 59.624C43.028 59.388 42.956 59.076 43.024 58.78L46.66 42.78C46.764 42.322 47.168 42 47.636 42H55C59.962 42 64 46.038 64 51L62.482 59.184C62.394 59.658 61.982 60 61.5 60Z" fill="#156963"/>
<path d="M54.9999 64C52.2439 64 49.9999 61.758 49.9999 59C49.9999 56.242 52.2439 54 54.9999 54C57.7559 54 59.9999 56.242 59.9999 59C59.9999 61.758 57.7559 64 54.9999 64ZM54.9999 56C53.3459 56 51.9999 57.346 51.9999 59C51.9999 60.654 53.3459 62 54.9999 62C56.6539 62 57.9999 60.654 57.9999 59C57.9999 57.346 56.6539 56 54.9999 56Z" fill="#156963"/>
<path d="M33 64C30.244 64 28 61.758 28 59C28 56.242 30.244 54 33 54C35.756 54 38 56.242 38 59C38 61.758 35.756 64 33 64ZM33 56C31.346 56 30 57.346 30 59C30 60.654 31.346 62 33 62C34.654 62 36 60.654 36 59C36 57.346 34.654 56 33 56Z" fill="#156963"/>
<path d="M28.9999 42H20.9999C20.4479 42 19.9999 41.552 19.9999 41C19.9999 40.448 20.4479 40 20.9999 40H28.9999C29.5519 40 29.9999 40.448 29.9999 41C29.9999 41.552 29.5519 42 28.9999 42Z" fill="#156963"/>
<path d="M29.0001 48H19.0001C18.4481 48 18.0001 47.552 18.0001 47C18.0001 46.448 18.4481 46 19.0001 46H29.0001C29.5521 46 30.0001 46.448 30.0001 47C30.0001 47.552 29.5521 48 29.0001 48Z" fill="#156963"/>
<path d="M29 54H17C16.448 54 16 53.552 16 53C16 52.448 16.448 52 17 52H29C29.552 52 30 52.448 30 53C30 53.552 29.552 54 29 54Z" fill="#156963"/>
<path d="M44.0001 60H37.0001C36.4481 60 36.0001 59.552 36.0001 59C36.0001 58.448 36.4481 58 37.0001 58H43.2021L47.7461 38H25.0001C24.4481 38 24.0001 37.552 24.0001 37C24.0001 36.448 24.4481 36 25.0001 36H49.0001C49.3041 36 49.5921 36.138 49.7821 36.376C49.9721 36.612 50.0441 36.924 49.9761 37.22L44.9761 59.22C44.8721 59.678 44.4661 60 44.0001 60Z" fill="#156963"/>
</g>
<defs>
<clipPath id="clip0_0_14">
<rect width="48" height="48" fill="white" transform="translate(16 22)"/>
</clipPath>
</defs>
</svg>
